<svg width="307" height="480" viewBox="0 0 307 480" fill="none" xmlns="http://www.w3.org/2000/svg">
<rect width="307" height="480" rx="16" fill="#12822B"/>
<rect x="29" y="28" width="248" height="88" rx="16" fill="#D9D9D9" fill-opacity="0.15"/>
<path d="M69 400.349H65.1818C63.4941 400.349 61.8755 401.034 60.682 402.253C59.4886 403.472 58.8182 405.125 58.8182 406.849V410.749H55V415.949H58.8182V426.349H63.9091V415.949H67.7273L69 410.749H63.9091V406.849C63.9091 406.504 64.0432 406.173 64.2819 405.93C64.5205 405.686 64.8443 405.549 65.1818 405.549H69V400.349Z" stroke="#FBF9FC" stroke-width="1.64017" stroke-linecap="round" stroke-linejoin="round"/>
<path d="M131.98 406.634C131.827 406.023 131.515 405.462 131.076 405.01C130.637 404.557 130.087 404.229 129.48 404.057C127.264 403.516 118.397 403.516 118.397 403.516C118.397 403.516 109.531 403.516 107.315 404.109C106.708 404.28 106.157 404.609 105.719 405.061C105.28 405.514 104.968 406.074 104.815 406.686C104.409 408.935 104.211 411.217 104.222 413.503C104.207 415.806 104.406 418.105 104.815 420.372C104.983 420.964 105.302 421.503 105.74 421.937C106.178 422.37 106.72 422.683 107.315 422.846C109.531 423.439 118.397 423.439 118.397 423.439C118.397 423.439 127.264 423.439 129.48 422.846C130.087 422.674 130.637 422.346 131.076 421.893C131.515 421.441 131.827 420.88 131.98 420.269C132.383 418.036 132.581 415.772 132.573 413.503C132.587 411.2 132.389 408.901 131.98 406.634V406.634Z" stroke="#FBF9FC" stroke-width="1.64017" stroke-linecap="round" stroke-linejoin="round"/>
<path d="M115.498 417.717L122.907 413.503L115.498 409.289V417.717Z" stroke="#FBF9FC" stroke-width="1.64017" stroke-linecap="round" stroke-linejoin="round"/>
<path d="M187.327 400H174.112C170.463 400 167.505 402.958 167.505 406.607V419.822C167.505 423.472 170.463 426.43 174.112 426.43H187.327C190.976 426.43 193.935 423.472 193.935 419.822V406.607C193.935 402.958 190.976 400 187.327 400Z" stroke="#FBF9FC" stroke-width="1.64017" stroke-linecap="round" stroke-linejoin="round"/>
<path d="M186.005 412.383C186.169 413.482 185.981 414.606 185.469 415.592C184.957 416.579 184.146 417.38 183.153 417.88C182.16 418.379 181.035 418.553 179.937 418.377C178.839 418.2 177.825 417.682 177.039 416.896C176.253 416.109 175.734 415.095 175.558 413.998C175.381 412.9 175.555 411.775 176.055 410.781C176.555 409.788 177.355 408.978 178.342 408.466C179.329 407.954 180.452 407.766 181.552 407.929C182.674 408.095 183.712 408.618 184.514 409.42C185.316 410.222 185.839 411.261 186.005 412.383Z" stroke="#FBF9FC" stroke-width="1.64017" stroke-linecap="round" stroke-linejoin="round"/>
<path d="M187.988 405.946H188.003" stroke="#FBF9FC" stroke-width="1.64017" stroke-linecap="round" stroke-linejoin="round"/>
<path d="M258 402.362C256.738 403.266 255.34 403.957 253.861 404.409C253.067 403.482 252.012 402.826 250.838 402.528C249.665 402.23 248.429 402.305 247.299 402.743C246.169 403.18 245.198 403.96 244.519 404.975C243.839 405.991 243.484 407.194 243.5 408.421V409.759C241.183 409.82 238.888 409.298 236.818 408.241C234.748 407.184 232.968 405.624 231.636 403.7C231.636 403.7 226.364 415.737 238.227 421.087C235.513 422.957 232.279 423.895 229 423.762C240.864 430.45 255.364 423.762 255.364 408.381C255.362 408.008 255.327 407.637 255.258 407.271C256.604 405.925 257.553 404.225 258 402.362Z" stroke="#FBF9FC" stroke-width="1.64017" stroke-linecap="round" stroke-linejoin="round"/>
<g clip-path="url(#clip0_21_1418)">
<path d="M253 140H53V340H253V140Z" fill="white"/>
<path d="M119.848 152.121H113.606V158.364H119.848V152.121Z" fill="black"/>
<path d="M138.03 152.121H131.788V158.364H138.03V152.121Z" fill="black"/>
<path d="M144.091 152.121H137.848V158.364H144.091V152.121Z" fill="black"/>
<path d="M156.212 152.121H149.97V158.364H156.212V152.121Z" fill="black"/>
<path d="M168.333 152.121H162.091V158.364H168.333V152.121Z" fill="black"/>
<path d="M174.394 152.121H168.151V158.364H174.394V152.121Z" fill="black"/>
<path d="M180.454 152.121H174.212V158.364H180.454V152.121Z" fill="black"/>
<path d="M192.575 152.121H186.333V158.364H192.575V152.121Z" fill="black"/>
<path d="M119.848 158.182H113.606V164.424H119.848V158.182Z" fill="black"/>
<path d="M125.909 158.182H119.667V164.424H125.909V158.182Z" fill="black"/>
<path d="M131.969 158.182H125.727V164.424H131.969V158.182Z" fill="black"/>
<path d="M156.212 158.182H149.97V164.424H156.212V158.182Z" fill="black"/>
<path d="M174.394 158.182H168.151V164.424H174.394V158.182Z" fill="black"/>
<path d="M186.515 158.182H180.272V164.424H186.515V158.182Z" fill="black"/>
<path d="M119.848 164.242H113.606V170.485H119.848V164.242Z" fill="black"/>
<path d="M180.454 164.242H174.212V170.485H180.454V164.242Z" fill="black"/>
<path d="M186.515 164.242H180.272V170.485H186.515V164.242Z" fill="black"/>
<path d="M192.575 164.242H186.333V170.485H192.575V164.242Z" fill="black"/>
<path d="M131.969 170.303H125.727V176.545H131.969V170.303Z" fill="black"/>
<path d="M150.152 170.303H143.909V176.545H150.152V170.303Z" fill="black"/>
<path d="M156.212 170.303H149.97V176.545H156.212V170.303Z" fill="black"/>
<path d="M162.273 170.303H156.03V176.545H162.273V170.303Z" fill="black"/>
<path d="M168.333 170.303H162.091V176.545H168.333V170.303Z" fill="black"/>
<path d="M174.394 170.303H168.151V176.545H174.394V170.303Z" fill="black"/>
<path d="M186.515 170.303H180.272V176.545H186.515V170.303Z" fill="black"/>
<path d="M125.909 176.364H119.667V182.606H125.909V176.364Z" fill="black"/>
<path d="M131.969 176.364H125.727V182.606H131.969V176.364Z" fill="black"/>
<path d="M138.03 176.364H131.788V182.606H138.03V176.364Z" fill="black"/>
<path d="M144.091 176.364H137.848V182.606H144.091V176.364Z" fill="black"/>
<path d="M168.333 176.364H162.091V182.606H168.333V176.364Z" fill="black"/>
<path d="M180.454 176.364H174.212V182.606H180.454V176.364Z" fill="black"/>
<path d="M186.515 176.364H180.272V182.606H186.515V176.364Z" fill="black"/>
<path d="M119.848 182.424H113.606V188.667H119.848V182.424Z" fill="black"/>
<path d="M131.969 182.424H125.727V188.667H131.969V182.424Z" fill="black"/>
<path d="M144.091 182.424H137.848V188.667H144.091V182.424Z" fill="black"/>
<path d="M162.273 182.424H156.03V188.667H162.273V182.424Z" fill="black"/>
<path d="M168.333 182.424H162.091V188.667H168.333V182.424Z" fill="black"/>
<path d="M180.454 182.424H174.212V188.667H180.454V182.424Z" fill="black"/>
<path d="M119.848 188.485H113.606V194.727H119.848V188.485Z" fill="black"/>
<path d="M131.969 188.485H125.727V194.727H131.969V188.485Z" fill="black"/>
<path d="M144.091 188.485H137.848V194.727H144.091V188.485Z" fill="black"/>
<path d="M156.212 188.485H149.97V194.727H156.212V188.485Z" fill="black"/>
<path d="M168.333 188.485H162.091V194.727H168.333V188.485Z" fill="black"/>
<path d="M180.454 188.485H174.212V194.727H180.454V188.485Z" fill="black"/>
<path d="M192.575 188.485H186.333V194.727H192.575V188.485Z" fill="black"/>
<path d="M119.848 194.545H113.606V200.788H119.848V194.545Z" fill="black"/>
<path d="M138.03 194.545H131.788V200.788H138.03V194.545Z" fill="black"/>
<path d="M144.091 194.545H137.848V200.788H144.091V194.545Z" fill="black"/>
<path d="M162.273 194.545H156.03V200.788H162.273V194.545Z" fill="black"/>
<path d="M168.333 194.545H162.091V200.788H168.333V194.545Z" fill="black"/>
<path d="M186.515 194.545H180.272V200.788H186.515V194.545Z" fill="black"/>
<path d="M83.4846 200.606H77.2422V206.849H83.4846V200.606Z" fill="black"/>
<path d="M89.5452 200.606H83.3027V206.849H89.5452V200.606Z" fill="black"/>
<path d="M95.6057 200.606H89.3633V206.849H95.6057V200.606Z" fill="black"/>
<path d="M107.727 200.606H101.485V206.849H107.727V200.606Z" fill="black"/>
<path d="M119.848 200.606H113.606V206.849H119.848V200.606Z" fill="black"/>
<path d="M144.091 200.606H137.848V206.849H144.091V200.606Z" fill="black"/>
<path d="M156.212 200.606H149.97V206.849H156.212V200.606Z" fill="black"/>
<path d="M162.273 200.606H156.03V206.849H162.273V200.606Z" fill="black"/>
<path d="M180.454 200.606H174.212V206.849H180.454V200.606Z" fill="black"/>
<path d="M198.636 200.606H192.394V206.849H198.636V200.606Z" fill="black"/>
<path d="M204.697 200.606H198.455V206.849H204.697V200.606Z" fill="black"/>
<path d="M210.758 200.606H204.515V206.849H210.758V200.606Z" fill="black"/>
<path d="M228.939 200.606H222.697V206.849H228.939V200.606Z" fill="black"/>
<path d="M235 200.606H228.757V206.849H235V200.606Z" fill="black"/>
<path d="M241.06 200.606H234.818V206.849H241.06V200.606Z" fill="black"/>
<path d="M83.4846 206.667H77.2422V212.909H83.4846V206.667Z" fill="black"/>
<path d="M113.788 206.667H107.545V212.909H113.788V206.667Z" fill="black"/>
<path d="M125.909 206.667H119.667V212.909H125.909V206.667Z" fill="black"/>
<path d="M131.969 206.667H125.727V212.909H131.969V206.667Z" fill="black"/>
<path d="M156.212 206.667H149.97V212.909H156.212V206.667Z" fill="black"/>
<path d="M162.273 206.667H156.03V212.909H162.273V206.667Z" fill="black"/>
<path d="M174.394 206.667H168.151V212.909H174.394V206.667Z" fill="black"/>
<path d="M210.758 206.667H204.515V212.909H210.758V206.667Z" fill="black"/>
<path d="M216.818 206.667H210.576V212.909H216.818V206.667Z" fill="black"/>
<path d="M222.879 206.667H216.636V212.909H222.879V206.667Z" fill="black"/>
<path d="M228.939 206.667H222.697V212.909H228.939V206.667Z" fill="black"/>
<path d="M241.06 206.667H234.818V212.909H241.06V206.667Z" fill="black"/>
<path d="M77.4241 212.727H71.1816V218.97H77.4241V212.727Z" fill="black"/>
<path d="M83.4846 212.727H77.2422V218.97H83.4846V212.727Z" fill="black"/>
<path d="M95.6057 212.727H89.3633V218.97H95.6057V212.727Z" fill="black"/>
<path d="M101.667 212.727H95.4243V218.97H101.667V212.727Z" fill="black"/>
<path d="M107.727 212.727H101.485V218.97H107.727V212.727Z" fill="black"/>
<path d="M131.969 212.727H125.727V218.97H131.969V212.727Z" fill="black"/>
<path d="M150.152 212.727H143.909V218.97H150.152V212.727Z" fill="black"/>
<path d="M156.212 212.727H149.97V218.97H156.212V212.727Z" fill="black"/>
<path d="M168.333 212.727H162.091V218.97H168.333V212.727Z" fill="black"/>
<path d="M198.636 212.727H192.394V218.97H198.636V212.727Z" fill="black"/>
<path d="M204.697 212.727H198.455V218.97H204.697V212.727Z" fill="black"/>
<path d="M228.939 212.727H222.697V218.97H228.939V212.727Z" fill="black"/>
<path d="M83.4846 218.788H77.2422V225.03H83.4846V218.788Z" fill="black"/>
<path d="M89.5452 218.788H83.3027V225.03H89.5452V218.788Z" fill="black"/>
<path d="M113.788 218.788H107.545V225.03H113.788V218.788Z" fill="black"/>
<path d="M119.848 218.788H113.606V225.03H119.848V218.788Z" fill="black"/>
<path d="M125.909 218.788H119.667V225.03H125.909V218.788Z" fill="black"/>
<path d="M131.969 218.788H125.727V225.03H131.969V218.788Z" fill="black"/>
<path d="M138.03 218.788H131.788V225.03H138.03V218.788Z" fill="black"/>
<path d="M162.273 218.788H156.03V225.03H162.273V218.788Z" fill="black"/>
<path d="M174.394 218.788H168.151V225.03H174.394V218.788Z" fill="black"/>
<path d="M186.515 218.788H180.272V225.03H186.515V218.788Z" fill="black"/>
<path d="M198.636 218.788H192.394V225.03H198.636V218.788Z" fill="black"/>
<path d="M204.697 218.788H198.455V225.03H204.697V218.788Z" fill="black"/>
<path d="M210.758 218.788H204.515V225.03H210.758V218.788Z" fill="black"/>
<path d="M216.818 218.788H210.576V225.03H216.818V218.788Z" fill="black"/>
<path d="M222.879 218.788H216.636V225.03H222.879V218.788Z" fill="black"/>
<path d="M235 218.788H228.757V225.03H235V218.788Z" fill="black"/>
<path d="M77.4241 224.849H71.1816V231.091H77.4241V224.849Z" fill="black"/>
<path d="M89.5452 224.849H83.3027V231.091H89.5452V224.849Z" fill="black"/>
<path d="M95.6057 224.849H89.3633V231.091H95.6057V224.849Z" fill="black"/>
<path d="M101.667 224.849H95.4243V231.091H101.667V224.849Z" fill="black"/>
<path d="M107.727 224.849H101.485V231.091H107.727V224.849Z" fill="black"/>
<path d="M119.848 224.849H113.606V231.091H119.848V224.849Z" fill="black"/>
<path d="M150.152 224.849H143.909V231.091H150.152V224.849Z" fill="black"/>
<path d="M156.212 224.849H149.97V231.091H156.212V224.849Z" fill="black"/>
<path d="M162.273 224.849H156.03V231.091H162.273V224.849Z" fill="black"/>
<path d="M168.333 224.849H162.091V231.091H168.333V224.849Z" fill="black"/>
<path d="M186.515 224.849H180.272V231.091H186.515V224.849Z" fill="black"/>
<path d="M192.575 224.849H186.333V231.091H192.575V224.849Z" fill="black"/>
<path d="M198.636 224.849H192.394V231.091H198.636V224.849Z" fill="black"/>
<path d="M210.758 224.849H204.515V231.091H210.758V224.849Z" fill="black"/>
<path d="M228.939 224.849H222.697V231.091H228.939V224.849Z" fill="black"/>
<path d="M235 224.849H228.757V231.091H235V224.849Z" fill="black"/>
<path d="M241.06 224.849H234.818V231.091H241.06V224.849Z" fill="black"/>
<path d="M71.3635 230.909H65.1211V237.151H71.3635V230.909Z" fill="black"/>
<path d="M83.4846 230.909H77.2422V237.151H83.4846V230.909Z" fill="black"/>
<path d="M89.5452 230.909H83.3027V237.151H89.5452V230.909Z" fill="black"/>
<path d="M95.6057 230.909H89.3633V237.151H95.6057V230.909Z" fill="black"/>
<path d="M101.667 230.909H95.4243V237.151H101.667V230.909Z" fill="black"/>
<path d="M113.788 230.909H107.545V237.151H113.788V230.909Z" fill="black"/>
<path d="M131.969 230.909H125.727V237.151H131.969V230.909Z" fill="black"/>
<path d="M144.091 230.909H137.848V237.151H144.091V230.909Z" fill="black"/>
<path d="M162.273 230.909H156.03V237.151H162.273V230.909Z" fill="black"/>
<path d="M180.454 230.909H174.212V237.151H180.454V230.909Z" fill="black"/>
<path d="M186.515 230.909H180.272V237.151H186.515V230.909Z" fill="black"/>
<path d="M192.575 230.909H186.333V237.151H192.575V230.909Z" fill="black"/>
<path d="M198.636 230.909H192.394V237.151H198.636V230.909Z" fill="black"/>
<path d="M204.697 230.909H198.455V237.151H204.697V230.909Z" fill="black"/>
<path d="M216.818 230.909H210.576V237.151H216.818V230.909Z" fill="black"/>
<path d="M222.879 230.909H216.636V237.151H222.879V230.909Z" fill="black"/>
<path d="M235 230.909H228.757V237.151H235V230.909Z" fill="black"/>
<path d="M241.06 230.909H234.818V237.151H241.06V230.909Z" fill="black"/>
<path d="M71.3635 236.97H65.1211V243.212H71.3635V236.97Z" fill="black"/>
<path d="M101.667 236.97H95.4243V243.212H101.667V236.97Z" fill="black"/>
<path d="M107.727 236.97H101.485V243.212H107.727V236.97Z" fill="black"/>
<path d="M119.848 236.97H113.606V243.212H119.848V236.97Z" fill="black"/>
<path d="M144.091 236.97H137.848V243.212H144.091V236.97Z" fill="black"/>
<path d="M150.152 236.97H143.909V243.212H150.152V236.97Z" fill="black"/>
<path d="M156.212 236.97H149.97V243.212H156.212V236.97Z" fill="black"/>
<path d="M192.575 236.97H186.333V243.212H192.575V236.97Z" fill="black"/>
<path d="M210.758 236.97H204.515V243.212H210.758V236.97Z" fill="black"/>
<path d="M71.3635 243.03H65.1211V249.273H71.3635V243.03Z" fill="black"/>
<path d="M77.4241 243.03H71.1816V249.273H77.4241V243.03Z" fill="black"/>
<path d="M83.4846 243.03H77.2422V249.273H83.4846V243.03Z" fill="black"/>
<path d="M113.788 243.03H107.545V249.273H113.788V243.03Z" fill="black"/>
<path d="M119.848 243.03H113.606V249.273H119.848V243.03Z" fill="black"/>
<path d="M125.909 243.03H119.667V249.273H125.909V243.03Z" fill="black"/>
<path d="M131.969 243.03H125.727V249.273H131.969V243.03Z" fill="black"/>
<path d="M144.091 243.03H137.848V249.273H144.091V243.03Z" fill="black"/>
<path d="M150.152 243.03H143.909V249.273H150.152V243.03Z" fill="black"/>
<path d="M162.273 243.03H156.03V249.273H162.273V243.03Z" fill="black"/>
<path d="M174.394 243.03H168.151V249.273H174.394V243.03Z" fill="black"/>
<path d="M180.454 243.03H174.212V249.273H180.454V243.03Z" fill="black"/>
<path d="M198.636 243.03H192.394V249.273H198.636V243.03Z" fill="black"/>
<path d="M216.818 243.03H210.576V249.273H216.818V243.03Z" fill="black"/>
<path d="M222.879 243.03H216.636V249.273H222.879V243.03Z" fill="black"/>
<path d="M77.4241 249.091H71.1816V255.333H77.4241V249.091Z" fill="black"/>
<path d="M83.4846 249.091H77.2422V255.333H83.4846V249.091Z" fill="black"/>
<path d="M89.5452 249.091H83.3027V255.333H89.5452V249.091Z" fill="black"/>
<path d="M101.667 249.091H95.4243V255.333H101.667V249.091Z" fill="black"/>
<path d="M107.727 249.091H101.485V255.333H107.727V249.091Z" fill="black"/>
<path d="M113.788 249.091H107.545V255.333H113.788V249.091Z" fill="black"/>
<path d="M119.848 249.091H113.606V255.333H119.848V249.091Z" fill="black"/>
<path d="M125.909 249.091H119.667V255.333H125.909V249.091Z" fill="black"/>
<path d="M138.03 249.091H131.788V255.333H138.03V249.091Z" fill="black"/>
<path d="M144.091 249.091H137.848V255.333H144.091V249.091Z" fill="black"/>
<path d="M156.212 249.091H149.97V255.333H156.212V249.091Z" fill="black"/>
<path d="M180.454 249.091H174.212V255.333H180.454V249.091Z" fill="black"/>
<path d="M210.758 249.091H204.515V255.333H210.758V249.091Z" fill="black"/>
<path d="M222.879 249.091H216.636V255.333H222.879V249.091Z" fill="black"/>
<path d="M228.939 249.091H222.697V255.333H228.939V249.091Z" fill="black"/>
<path d="M235 249.091H228.757V255.333H235V249.091Z" fill="black"/>
<path d="M241.06 249.091H234.818V255.333H241.06V249.091Z" fill="black"/>
<path d="M71.3635 255.151H65.1211V261.394H71.3635V255.151Z" fill="black"/>
<path d="M83.4846 255.151H77.2422V261.394H83.4846V255.151Z" fill="black"/>
<path d="M95.6057 255.151H89.3633V261.394H95.6057V255.151Z" fill="black"/>
<path d="M119.848 255.151H113.606V261.394H119.848V255.151Z" fill="black"/>
<path d="M138.03 255.151H131.788V261.394H138.03V255.151Z" fill="black"/>
<path d="M162.273 255.151H156.03V261.394H162.273V255.151Z" fill="black"/>
<path d="M180.454 255.151H174.212V261.394H180.454V255.151Z" fill="black"/>
<path d="M192.575 255.151H186.333V261.394H192.575V255.151Z" fill="black"/>
<path d="M210.758 255.151H204.515V261.394H210.758V255.151Z" fill="black"/>
<path d="M216.818 255.151H210.576V261.394H216.818V255.151Z" fill="black"/>
<path d="M228.939 255.151H222.697V261.394H228.939V255.151Z" fill="black"/>
<path d="M235 255.151H228.757V261.394H235V255.151Z" fill="black"/>
<path d="M241.06 255.151H234.818V261.394H241.06V255.151Z" fill="black"/>
<path d="M71.3635 261.212H65.1211V267.455H71.3635V261.212Z" fill="black"/>
<path d="M89.5452 261.212H83.3027V267.455H89.5452V261.212Z" fill="black"/>
<path d="M95.6057 261.212H89.3633V267.455H95.6057V261.212Z" fill="black"/>
<path d="M101.667 261.212H95.4243V267.455H101.667V261.212Z" fill="black"/>
<path d="M107.727 261.212H101.485V267.455H107.727V261.212Z" fill="black"/>
<path d="M119.848 261.212H113.606V267.455H119.848V261.212Z" fill="black"/>
<path d="M125.909 261.212H119.667V267.455H125.909V261.212Z" fill="black"/>
<path d="M150.152 261.212H143.909V267.455H150.152V261.212Z" fill="black"/>
<path d="M162.273 261.212H156.03V267.455H162.273V261.212Z" fill="black"/>
<path d="M180.454 261.212H174.212V267.455H180.454V261.212Z" fill="black"/>
<path d="M192.575 261.212H186.333V267.455H192.575V261.212Z" fill="black"/>
<path d="M204.697 261.212H198.455V267.455H204.697V261.212Z" fill="black"/>
<path d="M210.758 261.212H204.515V267.455H210.758V261.212Z" fill="black"/>
<path d="M222.879 261.212H216.636V267.455H222.879V261.212Z" fill="black"/>
<path d="M228.939 261.212H222.697V267.455H228.939V261.212Z" fill="black"/>
<path d="M71.3635 267.273H65.1211V273.515H71.3635V267.273Z" fill="black"/>
<path d="M83.4846 267.273H77.2422V273.515H83.4846V267.273Z" fill="black"/>
<path d="M89.5452 267.273H83.3027V273.515H89.5452V267.273Z" fill="black"/>
<path d="M95.6057 267.273H89.3633V273.515H95.6057V267.273Z" fill="black"/>
<path d="M119.848 267.273H113.606V273.515H119.848V267.273Z" fill="black"/>
<path d="M131.969 267.273H125.727V273.515H131.969V267.273Z" fill="black"/>
<path d="M138.03 267.273H131.788V273.515H138.03V267.273Z" fill="black"/>
<path d="M150.152 267.273H143.909V273.515H150.152V267.273Z" fill="black"/>
<path d="M156.212 267.273H149.97V273.515H156.212V267.273Z" fill="black"/>
<path d="M162.273 267.273H156.03V273.515H162.273V267.273Z" fill="black"/>
<path d="M204.697 267.273H198.455V273.515H204.697V267.273Z" fill="black"/>
<path d="M216.818 267.273H210.576V273.515H216.818V267.273Z" fill="black"/>
<path d="M235 267.273H228.757V273.515H235V267.273Z" fill="black"/>
<path d="M241.06 267.273H234.818V273.515H241.06V267.273Z" fill="black"/>
<path d="M71.3635 273.333H65.1211V279.576H71.3635V273.333Z" fill="black"/>
<path d="M89.5452 273.333H83.3027V279.576H89.5452V273.333Z" fill="black"/>
<path d="M101.667 273.333H95.4243V279.576H101.667V273.333Z" fill="black"/>
<path d="M107.727 273.333H101.485V279.576H107.727V273.333Z" fill="black"/>
<path d="M119.848 273.333H113.606V279.576H119.848V273.333Z" fill="black"/>
<path d="M144.091 273.333H137.848V279.576H144.091V273.333Z" fill="black"/>
<path d="M156.212 273.333H149.97V279.576H156.212V273.333Z" fill="black"/>
<path d="M168.333 273.333H162.091V279.576H168.333V273.333Z" fill="black"/>
<path d="M186.515 273.333H180.272V279.576H186.515V273.333Z" fill="black"/>
<path d="M192.575 273.333H186.333V279.576H192.575V273.333Z" fill="black"/>
<path d="M198.636 273.333H192.394V279.576H198.636V273.333Z" fill="black"/>
<path d="M204.697 273.333H198.455V279.576H204.697V273.333Z" fill="black"/>
<path d="M210.758 273.333H204.515V279.576H210.758V273.333Z" fill="black"/>
<path d="M216.818 273.333H210.576V279.576H216.818V273.333Z" fill="black"/>
<path d="M228.939 273.333H222.697V279.576H228.939V273.333Z" fill="black"/>
<path d="M119.848 279.394H113.606V285.636H119.848V279.394Z" fill="black"/>
<path d="M131.969 279.394H125.727V285.636H131.969V279.394Z" fill="black"/>
<path d="M138.03 279.394H131.788V285.636H138.03V279.394Z" fill="black"/>
<path d="M144.091 279.394H137.848V285.636H144.091V279.394Z" fill="black"/>
<path d="M156.212 279.394H149.97V285.636H156.212V279.394Z" fill="black"/>
<path d="M162.273 279.394H156.03V285.636H162.273V279.394Z" fill="black"/>
<path d="M174.394 279.394H168.151V285.636H174.394V279.394Z" fill="black"/>
<path d="M180.454 279.394H174.212V285.636H180.454V279.394Z" fill="black"/>
<path d="M186.515 279.394H180.272V285.636H186.515V279.394Z" fill="black"/>
<path d="M192.575 279.394H186.333V285.636H192.575V279.394Z" fill="black"/>
<path d="M216.818 279.394H210.576V285.636H216.818V279.394Z" fill="black"/>
<path d="M222.879 279.394H216.636V285.636H222.879V279.394Z" fill="black"/>
<path d="M235 279.394H228.757V285.636H235V279.394Z" fill="black"/>
<path d="M241.06 279.394H234.818V285.636H241.06V279.394Z" fill="black"/>
<path d="M138.03 285.455H131.788V291.697H138.03V285.455Z" fill="black"/>
<path d="M150.152 285.455H143.909V291.697H150.152V285.455Z" fill="black"/>
<path d="M156.212 285.455H149.97V291.697H156.212V285.455Z" fill="black"/>
<path d="M162.273 285.455H156.03V291.697H162.273V285.455Z" fill="black"/>
<path d="M174.394 285.455H168.151V291.697H174.394V285.455Z" fill="black"/>
<path d="M186.515 285.455H180.272V291.697H186.515V285.455Z" fill="black"/>
<path d="M192.575 285.455H186.333V291.697H192.575V285.455Z" fill="black"/>
<path d="M204.697 285.455H198.455V291.697H204.697V285.455Z" fill="black"/>
<path d="M216.818 285.455H210.576V291.697H216.818V285.455Z" fill="black"/>
<path d="M125.909 291.515H119.667V297.758H125.909V291.515Z" fill="black"/>
<path d="M156.212 291.515H149.97V297.758H156.212V291.515Z" fill="black"/>
<path d="M162.273 291.515H156.03V297.758H162.273V291.515Z" fill="black"/>
<path d="M174.394 291.515H168.151V297.758H174.394V291.515Z" fill="black"/>
<path d="M186.515 291.515H180.272V297.758H186.515V291.515Z" fill="black"/>
<path d="M192.575 291.515H186.333V297.758H192.575V291.515Z" fill="black"/>
<path d="M216.818 291.515H210.576V297.758H216.818V291.515Z" fill="black"/>
<path d="M222.879 291.515H216.636V297.758H222.879V291.515Z" fill="black"/>
<path d="M235 291.515H228.757V297.758H235V291.515Z" fill="black"/>
<path d="M119.848 297.576H113.606V303.818H119.848V297.576Z" fill="black"/>
<path d="M144.091 297.576H137.848V303.818H144.091V297.576Z" fill="black"/>
<path d="M150.152 297.576H143.909V303.818H150.152V297.576Z" fill="black"/>
<path d="M156.212 297.576H149.97V303.818H156.212V297.576Z" fill="black"/>
<path d="M162.273 297.576H156.03V303.818H162.273V297.576Z" fill="black"/>
<path d="M168.333 297.576H162.091V303.818H168.333V297.576Z" fill="black"/>
<path d="M192.575 297.576H186.333V303.818H192.575V297.576Z" fill="black"/>
<path d="M198.636 297.576H192.394V303.818H198.636V297.576Z" fill="black"/>
<path d="M204.697 297.576H198.455V303.818H204.697V297.576Z" fill="black"/>
<path d="M210.758 297.576H204.515V303.818H210.758V297.576Z" fill="black"/>
<path d="M216.818 297.576H210.576V303.818H216.818V297.576Z" fill="black"/>
<path d="M222.879 297.576H216.636V303.818H222.879V297.576Z" fill="black"/>
<path d="M228.939 297.576H222.697V303.818H228.939V297.576Z" fill="black"/>
<path d="M241.06 297.576H234.818V303.818H241.06V297.576Z" fill="black"/>
<path d="M119.848 303.636H113.606V309.879H119.848V303.636Z" fill="black"/>
<path d="M125.909 303.636H119.667V309.879H125.909V303.636Z" fill="black"/>
<path d="M131.969 303.636H125.727V309.879H131.969V303.636Z" fill="black"/>
<path d="M138.03 303.636H131.788V309.879H138.03V303.636Z" fill="black"/>
<path d="M162.273 303.636H156.03V309.879H162.273V303.636Z" fill="black"/>
<path d="M168.333 303.636H162.091V309.879H168.333V303.636Z" fill="black"/>
<path d="M186.515 303.636H180.272V309.879H186.515V303.636Z" fill="black"/>
<path d="M192.575 303.636H186.333V309.879H192.575V303.636Z" fill="black"/>
<path d="M198.636 303.636H192.394V309.879H198.636V303.636Z" fill="black"/>
<path d="M210.758 303.636H204.515V309.879H210.758V303.636Z" fill="black"/>
<path d="M222.879 303.636H216.636V309.879H222.879V303.636Z" fill="black"/>
<path d="M228.939 303.636H222.697V309.879H228.939V303.636Z" fill="black"/>
<path d="M119.848 309.697H113.606V315.939H119.848V309.697Z" fill="black"/>
<path d="M125.909 309.697H119.667V315.939H125.909V309.697Z" fill="black"/>
<path d="M138.03 309.697H131.788V315.939H138.03V309.697Z" fill="black"/>
<path d="M144.091 309.697H137.848V315.939H144.091V309.697Z" fill="black"/>
<path d="M156.212 309.697H149.97V315.939H156.212V309.697Z" fill="black"/>
<path d="M180.454 309.697H174.212V315.939H180.454V309.697Z" fill="black"/>
<path d="M186.515 309.697H180.272V315.939H186.515V309.697Z" fill="black"/>
<path d="M192.575 309.697H186.333V315.939H192.575V309.697Z" fill="black"/>
<path d="M198.636 309.697H192.394V315.939H198.636V309.697Z" fill="black"/>
<path d="M204.697 309.697H198.455V315.939H204.697V309.697Z" fill="black"/>
<path d="M210.758 309.697H204.515V315.939H210.758V309.697Z" fill="black"/>
<path d="M216.818 309.697H210.576V315.939H216.818V309.697Z" fill="black"/>
<path d="M222.879 309.697H216.636V315.939H222.879V309.697Z" fill="black"/>
<path d="M228.939 309.697H222.697V315.939H228.939V309.697Z" fill="black"/>
<path d="M235 309.697H228.757V315.939H235V309.697Z" fill="black"/>
<path d="M131.969 315.758H125.727V322H131.969V315.758Z" fill="black"/>
<path d="M138.03 315.758H131.788V322H138.03V315.758Z" fill="black"/>
<path d="M150.152 315.758H143.909V322H150.152V315.758Z" fill="black"/>
<path d="M156.212 315.758H149.97V322H156.212V315.758Z" fill="black"/>
<path d="M162.273 315.758H156.03V322H162.273V315.758Z" fill="black"/>
<path d="M186.515 315.758H180.272V322H186.515V315.758Z" fill="black"/>
<path d="M198.636 315.758H192.394V322H198.636V315.758Z" fill="black"/>
<path d="M204.697 315.758H198.455V322H204.697V315.758Z" fill="black"/>
<path d="M216.818 315.758H210.576V322H216.818V315.758Z" fill="black"/>
<path d="M222.879 315.758H216.636V322H222.879V315.758Z" fill="black"/>
<path d="M235 315.758H228.757V322H235V315.758Z" fill="black"/>
<path d="M131.969 321.818H125.727V328.061H131.969V321.818Z" fill="black"/>
<path d="M138.03 321.818H131.788V328.061H138.03V321.818Z" fill="black"/>
<path d="M168.333 321.818H162.091V328.061H168.333V321.818Z" fill="black"/>
<path d="M174.394 321.818H168.151V328.061H174.394V321.818Z" fill="black"/>
<path d="M186.515 321.818H180.272V328.061H186.515V321.818Z" fill="black"/>
<path d="M198.636 321.818H192.394V328.061H198.636V321.818Z" fill="black"/>
<path d="M216.818 321.818H210.576V328.061H216.818V321.818Z" fill="black"/>
<path d="M65.1211 152.121V194.545H107.545V152.121H65.1211ZM101.485 188.485H71.1817V158.182H101.485V188.485Z" fill="black"/>
<path d="M198.455 152.121V194.545H240.879V152.121H198.455ZM234.818 188.485H204.515V158.182H234.818V188.485Z" fill="black"/>
<path d="M65.1211 285.455V327.879H107.545V285.455H65.1211ZM101.485 321.818H71.1817V291.515H101.485V321.818Z" fill="black"/>
<path d="M95.424 164.242H77.2422V182.424H95.424V164.242Z" fill="black"/>
<path d="M228.758 164.242H210.576V182.424H228.758V164.242Z" fill="black"/>
<path d="M95.424 297.576H77.2422V315.758H95.424V297.576Z" fill="black"/>
</g>
<path d="M61.3086 79L55.9806 61.48H60.0366L64.2606 76.264L63.3486 75.808H65.7966L64.8366 76.264L68.7486 61.48H72.6846L67.7166 79H61.3086ZM75.2198 79V65.848H79.0598V79H75.2198ZM73.4678 68.68V65.848H79.0598V68.68H73.4678ZM76.7078 64.552C75.9878 64.552 75.4518 64.368 75.0998 64C74.7638 63.616 74.5958 63.136 74.5958 62.56C74.5958 61.968 74.7638 61.488 75.0998 61.12C75.4518 60.736 75.9878 60.544 76.7078 60.544C77.4278 60.544 77.9558 60.736 78.2918 61.12C78.6438 61.488 78.8198 61.968 78.8198 62.56C78.8198 63.136 78.6438 63.616 78.2918 64C77.9558 64.368 77.4278 64.552 76.7078 64.552ZM88.5154 79.456C87.3794 79.456 86.3874 79.272 85.5394 78.904C84.7074 78.52 84.0114 78.008 83.4514 77.368C82.8914 76.728 82.4754 76.008 82.2034 75.208C81.9314 74.392 81.7954 73.552 81.7954 72.688V72.232C81.7954 71.336 81.9394 70.48 82.2274 69.664C82.5154 68.832 82.9394 68.096 83.4994 67.456C84.0594 66.816 84.7554 66.312 85.5874 65.944C86.4354 65.576 87.4034 65.392 88.4914 65.392C89.6754 65.392 90.7234 65.624 91.6354 66.088C92.5474 66.536 93.2754 67.168 93.8194 67.984C94.3634 68.8 94.6674 69.736 94.7314 70.792H90.9634C90.8994 70.2 90.6594 69.704 90.2434 69.304C89.8434 68.888 89.2594 68.68 88.4914 68.68C87.8514 68.68 87.3154 68.84 86.8834 69.16C86.4674 69.48 86.1554 69.92 85.9474 70.48C85.7394 71.04 85.6354 71.704 85.6354 72.472C85.6354 73.176 85.7314 73.816 85.9234 74.392C86.1154 74.952 86.4194 75.392 86.8354 75.712C87.2674 76.016 87.8274 76.168 88.5154 76.168C89.0274 76.168 89.4594 76.08 89.8114 75.904C90.1794 75.712 90.4674 75.456 90.6754 75.136C90.8994 74.8 91.0354 74.416 91.0834 73.984H94.8274C94.7794 75.072 94.4754 76.032 93.9154 76.864C93.3554 77.68 92.6114 78.32 91.6834 78.784C90.7554 79.232 89.6994 79.456 88.5154 79.456ZM103.259 79.168C101.931 79.168 100.859 79.008 100.043 78.688C99.2273 78.352 98.6273 77.8 98.2433 77.032C97.8753 76.248 97.6913 75.192 97.6913 73.864V62.296H101.267V74.008C101.267 74.632 101.427 75.112 101.747 75.448C102.083 75.768 102.555 75.928 103.163 75.928H105.107V79.168H103.259ZM95.6993 68.656V65.848H105.107V68.656H95.6993ZM114.051 79.456C112.899 79.456 111.875 79.28 110.979 78.928C110.083 78.56 109.323 78.064 108.699 77.44C108.091 76.816 107.627 76.104 107.307 75.304C106.987 74.488 106.827 73.632 106.827 72.736V72.184C106.827 71.272 106.987 70.408 107.307 69.592C107.643 68.76 108.123 68.032 108.747 67.408C109.387 66.784 110.155 66.296 111.051 65.944C111.947 65.576 112.947 65.392 114.051 65.392C115.187 65.392 116.195 65.576 117.075 65.944C117.971 66.296 118.731 66.784 119.355 67.408C119.979 68.032 120.459 68.76 120.795 69.592C121.131 70.408 121.299 71.272 121.299 72.184V72.736C121.299 73.632 121.139 74.488 120.819 75.304C120.499 76.104 120.027 76.816 119.403 77.44C118.795 78.064 118.043 78.56 117.147 78.928C116.251 79.28 115.219 79.456 114.051 79.456ZM114.051 76.216C114.803 76.216 115.427 76.056 115.923 75.736C116.419 75.416 116.795 74.968 117.051 74.392C117.323 73.816 117.459 73.176 117.459 72.472C117.459 71.72 117.323 71.064 117.051 70.504C116.779 69.928 116.387 69.472 115.875 69.136C115.379 68.8 114.771 68.632 114.051 68.632C113.347 68.632 112.739 68.8 112.227 69.136C111.715 69.472 111.323 69.928 111.051 70.504C110.795 71.064 110.667 71.72 110.667 72.472C110.667 73.176 110.795 73.816 111.051 74.392C111.307 74.968 111.691 75.416 112.203 75.736C112.715 76.056 113.331 76.216 114.051 76.216ZM123.979 79V65.848H127.027V71.488H126.955C126.955 69.632 127.347 68.2 128.131 67.192C128.931 66.184 130.083 65.68 131.587 65.68H132.091V68.992H131.131C130.075 68.992 129.259 69.28 128.683 69.856C128.107 70.416 127.819 71.232 127.819 72.304V79H123.979ZM142.695 79.12V76.048H146.799C147.535 76.048 148.087 75.856 148.455 75.472C148.823 75.088 149.007 74.544 149.007 73.84C149.007 73.136 148.823 72.6 148.455 72.232C148.087 71.848 147.535 71.656 146.799 71.656H142.695V69.28H146.607C147.823 69.28 148.903 69.432 149.847 69.736C150.791 70.024 151.535 70.496 152.079 71.152C152.623 71.808 152.895 72.696 152.895 73.816V74.152C152.895 75.192 152.655 76.088 152.175 76.84C151.695 77.576 150.991 78.144 150.063 78.544C149.135 78.928 147.983 79.12 146.607 79.12H142.695ZM139.335 79.12V61.336H143.175V79.12H139.335ZM142.695 71.032V68.68H146.151C146.903 68.68 147.447 68.488 147.783 68.104C148.119 67.72 148.287 67.208 148.287 66.568C148.287 65.896 148.119 65.368 147.783 64.984C147.447 64.6 146.903 64.408 146.151 64.408H142.695V61.336H145.911C147.927 61.336 149.471 61.76 150.543 62.608C151.631 63.456 152.175 64.664 152.175 66.232V66.592C152.175 67.68 151.895 68.552 151.335 69.208C150.791 69.864 150.047 70.336 149.103 70.624C148.175 70.896 147.111 71.032 145.911 71.032H142.695ZM155.736 79V65.848H158.784V71.488H158.712C158.712 69.632 159.104 68.2 159.888 67.192C160.688 66.184 161.84 65.68 163.344 65.68H163.848V68.992H162.888C161.832 68.992 161.016 69.28 160.44 69.856C159.864 70.416 159.576 71.232 159.576 72.304V79H155.736ZM173.688 79V75.112H173.04V70.888C173.04 70.216 172.88 69.712 172.56 69.376C172.24 69.04 171.728 68.872 171.024 68.872C170.672 68.872 170.208 68.88 169.632 68.896C169.056 68.912 168.464 68.936 167.856 68.968C167.248 69 166.696 69.032 166.2 69.064V65.824C166.568 65.792 167 65.76 167.496 65.728C167.992 65.696 168.504 65.672 169.032 65.656C169.56 65.64 170.056 65.632 170.52 65.632C171.864 65.632 172.992 65.824 173.904 66.208C174.832 66.592 175.536 67.176 176.016 67.96C176.496 68.728 176.736 69.72 176.736 70.936V79H173.688ZM169.488 79.336C168.544 79.336 167.712 79.168 166.992 78.832C166.288 78.496 165.736 78.016 165.336 77.392C164.936 76.752 164.736 75.992 164.736 75.112C164.736 74.152 164.984 73.368 165.48 72.76C165.976 72.136 166.672 71.68 167.568 71.392C168.464 71.088 169.496 70.936 170.664 70.936H173.472V73.072H170.64C169.968 73.072 169.448 73.24 169.08 73.576C168.728 73.896 168.552 74.336 168.552 74.896C168.552 75.424 168.728 75.856 169.08 76.192C169.448 76.512 169.968 76.672 170.64 76.672C171.072 76.672 171.456 76.6 171.792 76.456C172.144 76.296 172.432 76.032 172.656 75.664C172.88 75.296 173.008 74.784 173.04 74.128L173.952 75.088C173.872 76 173.648 76.768 173.28 77.392C172.928 78.016 172.432 78.496 171.792 78.832C171.168 79.168 170.4 79.336 169.488 79.336ZM184.986 79.408C183.114 79.408 181.65 79.024 180.594 78.256C179.538 77.488 178.978 76.408 178.914 75.016H182.322C182.386 75.432 182.634 75.808 183.066 76.144C183.514 76.464 184.178 76.624 185.058 76.624C185.73 76.624 186.282 76.512 186.714 76.288C187.162 76.048 187.386 75.712 187.386 75.28C187.386 74.896 187.218 74.592 186.882 74.368C186.546 74.128 185.946 73.96 185.082 73.864L184.05 73.768C182.466 73.608 181.274 73.168 180.474 72.448C179.69 71.728 179.298 70.808 179.298 69.688C179.298 68.76 179.53 67.984 179.994 67.36C180.458 66.736 181.098 66.264 181.914 65.944C182.746 65.624 183.69 65.464 184.746 65.464C186.442 65.464 187.81 65.84 188.85 66.592C189.89 67.328 190.434 68.4 190.482 69.808H187.074C187.01 69.376 186.786 69.016 186.402 68.728C186.018 68.424 185.45 68.272 184.698 68.272C184.106 68.272 183.634 68.384 183.282 68.608C182.93 68.832 182.754 69.136 182.754 69.52C182.754 69.888 182.906 70.168 183.21 70.36C183.514 70.552 184.01 70.688 184.698 70.768L185.73 70.864C187.346 71.04 188.602 71.488 189.498 72.208C190.394 72.928 190.842 73.896 190.842 75.112C190.842 75.992 190.602 76.76 190.122 77.416C189.642 78.056 188.962 78.552 188.082 78.904C187.202 79.24 186.17 79.408 184.986 79.408ZM193.954 79V65.848H197.794V79H193.954ZM192.202 68.68V65.848H197.794V68.68H192.202ZM195.442 64.552C194.722 64.552 194.186 64.368 193.834 64C193.498 63.616 193.33 63.136 193.33 62.56C193.33 61.968 193.498 61.488 193.834 61.12C194.186 60.736 194.722 60.544 195.442 60.544C196.162 60.544 196.69 60.736 197.026 61.12C197.378 61.488 197.554 61.968 197.554 62.56C197.554 63.136 197.378 63.616 197.026 64C196.69 64.368 196.162 64.552 195.442 64.552ZM201.514 79V61.48H205.378V79H201.514ZM199.954 64.312V61.48H205.378V64.312H199.954ZM214.94 79.456C213.82 79.456 212.828 79.264 211.964 78.88C211.116 78.496 210.404 77.984 209.828 77.344C209.268 76.688 208.836 75.96 208.532 75.16C208.244 74.344 208.1 73.512 208.1 72.664V72.184C208.1 71.304 208.244 70.464 208.532 69.664C208.836 68.848 209.268 68.12 209.828 67.48C210.388 66.84 211.084 66.336 211.916 65.968C212.764 65.584 213.724 65.392 214.796 65.392C216.204 65.392 217.388 65.712 218.348 66.352C219.324 66.976 220.068 67.8 220.58 68.824C221.092 69.832 221.348 70.936 221.348 72.136V73.432H209.708V71.248H219.02L217.772 72.256C217.772 71.472 217.66 70.8 217.436 70.24C217.212 69.68 216.876 69.256 216.428 68.968C215.996 68.664 215.452 68.512 214.796 68.512C214.124 68.512 213.556 68.664 213.092 68.968C212.628 69.272 212.276 69.72 212.036 70.312C211.796 70.888 211.676 71.6 211.676 72.448C211.676 73.232 211.788 73.92 212.012 74.512C212.236 75.088 212.588 75.536 213.068 75.856C213.548 76.176 214.172 76.336 214.94 76.336C215.644 76.336 216.22 76.2 216.668 75.928C217.116 75.656 217.42 75.32 217.58 74.92H221.108C220.916 75.8 220.54 76.584 219.98 77.272C219.42 77.96 218.716 78.496 217.868 78.88C217.02 79.264 216.044 79.456 214.94 79.456ZM224.517 79V65.848H228.357V79H224.517ZM222.765 68.68V65.848H228.357V68.68H222.765ZM226.005 64.552C225.285 64.552 224.749 64.368 224.397 64C224.061 63.616 223.893 63.136 223.893 62.56C223.893 61.968 224.061 61.488 224.397 61.12C224.749 60.736 225.285 60.544 226.005 60.544C226.725 60.544 227.253 60.736 227.589 61.12C227.941 61.488 228.117 61.968 228.117 62.56C228.117 63.136 227.941 63.616 227.589 64C227.253 64.368 226.725 64.552 226.005 64.552ZM231.908 79V65.848H234.956V71.488H234.884C234.884 69.632 235.276 68.2 236.06 67.192C236.86 66.184 238.012 65.68 239.516 65.68H240.02V68.992H239.06C238.004 68.992 237.188 69.28 236.612 69.856C236.036 70.416 235.748 71.232 235.748 72.304V79H231.908ZM248.348 79.456C247.196 79.456 246.172 79.28 245.276 78.928C244.38 78.56 243.62 78.064 242.996 77.44C242.388 76.816 241.924 76.104 241.604 75.304C241.284 74.488 241.124 73.632 241.124 72.736V72.184C241.124 71.272 241.284 70.408 241.604 69.592C241.94 68.76 242.42 68.032 243.044 67.408C243.684 66.784 244.452 66.296 245.348 65.944C246.244 65.576 247.244 65.392 248.348 65.392C249.484 65.392 250.492 65.576 251.372 65.944C252.268 66.296 253.028 66.784 253.652 67.408C254.276 68.032 254.756 68.76 255.092 69.592C255.428 70.408 255.596 71.272 255.596 72.184V72.736C255.596 73.632 255.436 74.488 255.116 75.304C254.796 76.104 254.324 76.816 253.7 77.44C253.092 78.064 252.34 78.56 251.444 78.928C250.548 79.28 249.516 79.456 248.348 79.456ZM248.348 76.216C249.1 76.216 249.724 76.056 250.22 75.736C250.716 75.416 251.092 74.968 251.348 74.392C251.62 73.816 251.756 73.176 251.756 72.472C251.756 71.72 251.62 71.064 251.348 70.504C251.076 69.928 250.684 69.472 250.172 69.136C249.676 68.8 249.068 68.632 248.348 68.632C247.644 68.632 247.036 68.8 246.523 69.136C246.012 69.472 245.62 69.928 245.348 70.504C245.092 71.064 244.964 71.72 244.964 72.472C244.964 73.176 245.092 73.816 245.348 74.392C245.604 74.968 245.988 75.416 246.5 75.736C247.012 76.056 247.628 76.216 248.348 76.216Z" fill="white"/>
<path d="M59.0543 90L59.1509 89.4545C59.1793 89.2936 59.2371 89.1241 59.3242 88.946C59.4132 88.768 59.525 88.5975 59.6594 88.4347C59.7958 88.2718 59.9473 88.1326 60.114 88.017L60.4776 88.3182C60.3394 88.4867 60.2134 88.6629 60.0998 88.8466C59.9862 89.0303 59.9123 89.2301 59.8782 89.446L59.7816 90H59.0543ZM60.5032 90L60.5998 89.4545C60.6282 89.2936 60.686 89.1241 60.7731 88.946C60.8621 88.768 60.9738 88.5975 61.1083 88.4347C61.2447 88.2718 61.3962 88.1326 61.5629 88.017L61.9265 88.3182C61.7882 88.4867 61.6623 88.6629 61.5487 88.8466C61.435 89.0303 61.3612 89.2301 61.3271 89.446L61.2305 90H60.5032ZM67.4492 88.1818L66.4833 94H65.6765L63.4293 89.733H63.3782L62.6651 94H61.7873L62.7532 88.1818H63.5657L65.8157 92.4545H65.8697L66.5799 88.1818H67.4492ZM69.5536 94.0881C69.1388 94.0881 68.7923 93.9934 68.5138 93.804C68.2354 93.6127 68.0394 93.3456 67.9258 93.0028C67.814 92.6581 67.7951 92.2576 67.869 91.8011C67.9409 91.3542 68.0858 90.964 68.3036 90.6307C68.5233 90.2973 68.7979 90.0388 69.1275 89.8551C69.4589 89.6714 69.8273 89.5795 70.2326 89.5795C70.6474 89.5795 70.993 89.6752 71.2695 89.8665C71.5479 90.0578 71.744 90.3258 71.8576 90.6705C71.9712 91.0152 71.9911 91.4167 71.9173 91.875C71.8453 92.3182 71.6985 92.7064 71.4769 93.0398C71.2572 93.3712 70.9826 93.6288 70.6531 93.8125C70.3235 93.9962 69.957 94.0881 69.5536 94.0881ZM69.6019 93.375C69.8746 93.375 70.1123 93.303 70.315 93.1591C70.5195 93.0152 70.6862 92.8239 70.815 92.5852C70.9438 92.3466 71.0318 92.0852 71.0792 91.8011C71.1228 91.5265 71.1218 91.2756 71.0763 91.0483C71.0328 90.8191 70.9381 90.6354 70.7923 90.4972C70.6464 90.3589 70.4438 90.2898 70.1843 90.2898C69.9116 90.2898 69.672 90.3627 69.4656 90.5085C69.261 90.6525 69.0943 90.8447 68.9656 91.0852C68.8387 91.3258 68.7525 91.5881 68.707 91.8722C68.6635 92.1449 68.6635 92.3958 68.707 92.625C68.7506 92.8523 68.8453 93.0341 68.9911 93.1705C69.137 93.3068 69.3406 93.375 69.6019 93.375ZM76.337 90.7017L75.5444 90.8381C75.5273 90.7377 75.4923 90.643 75.4393 90.554C75.3881 90.465 75.3095 90.393 75.2035 90.3381C75.0974 90.2812 74.9563 90.2528 74.7802 90.2528C74.5359 90.2528 74.3219 90.3087 74.1381 90.4205C73.9563 90.5322 73.8522 90.6742 73.8256 90.8466C73.801 90.9867 73.8342 91.1004 73.9251 91.1875C74.016 91.2727 74.176 91.3437 74.4052 91.4006L75.0756 91.5597C75.462 91.6525 75.7385 91.7973 75.9052 91.9943C76.0737 92.1894 76.1325 92.4432 76.0813 92.7557C76.0378 93.0152 75.9241 93.2453 75.7404 93.446C75.5586 93.6468 75.3256 93.804 75.0415 93.9176C74.7575 94.0313 74.4412 94.0881 74.0927 94.0881C73.5965 94.0881 73.2101 93.983 72.9336 93.7727C72.6571 93.5625 72.515 93.2652 72.5075 92.8807L73.3484 92.7557C73.3635 92.9697 73.4402 93.1316 73.5785 93.2415C73.7186 93.3494 73.9128 93.4034 74.1609 93.4034C74.445 93.4053 74.6826 93.3456 74.8739 93.2244C75.0652 93.1032 75.1741 92.9564 75.2006 92.7841C75.2234 92.6496 75.1931 92.5379 75.1097 92.4489C75.0283 92.3598 74.8844 92.2917 74.6779 92.2443L73.9734 92.0824C73.5794 91.9896 73.301 91.84 73.1381 91.6335C72.9753 91.4271 72.9203 91.1676 72.9734 90.8551C73.015 90.5994 73.123 90.3769 73.2972 90.1875C73.4734 89.9962 73.6959 89.8475 73.9648 89.7415C74.2338 89.6335 74.5311 89.5795 74.8569 89.5795C75.3323 89.5795 75.6893 89.6818 75.9279 89.8864C76.1665 90.089 76.3029 90.3608 76.337 90.7017ZM80.6261 90.7017L79.8335 90.8381C79.8164 90.7377 79.7814 90.643 79.7283 90.554C79.6772 90.465 79.5986 90.393 79.4925 90.3381C79.3865 90.2812 79.2454 90.2528 79.0692 90.2528C78.8249 90.2528 78.6109 90.3087 78.4272 90.4205C78.2454 90.5322 78.1412 90.6742 78.1147 90.8466C78.0901 90.9867 78.1232 91.1004 78.2141 91.1875C78.305 91.2727 78.4651 91.3437 78.6942 91.4006L79.3647 91.5597C79.7511 91.6525 80.0276 91.7973 80.1942 91.9943C80.3628 92.1894 80.4215 92.4432 80.3704 92.7557C80.3268 93.0152 80.2132 93.2453 80.0295 93.446C79.8477 93.6468 79.6147 93.804 79.3306 93.9176C79.0465 94.0313 78.7302 94.0881 78.3817 94.0881C77.8855 94.0881 77.4992 93.983 77.2227 93.7727C76.9461 93.5625 76.8041 93.2652 76.7965 92.8807L77.6374 92.7557C77.6526 92.9697 77.7293 93.1316 77.8675 93.2415C78.0077 93.3494 78.2018 93.4034 78.4499 93.4034C78.734 93.4053 78.9717 93.3456 79.163 93.2244C79.3543 93.1032 79.4632 92.9564 79.4897 92.7841C79.5124 92.6496 79.4821 92.5379 79.3988 92.4489C79.3174 92.3598 79.1734 92.2917 78.967 92.2443L78.2624 92.0824C77.8685 91.9896 77.5901 91.84 77.4272 91.6335C77.2643 91.4271 77.2094 91.1676 77.2624 90.8551C77.3041 90.5994 77.4121 90.3769 77.5863 90.1875C77.7624 89.9962 77.985 89.8475 78.2539 89.7415C78.5228 89.6335 78.8202 89.5795 79.146 89.5795C79.6213 89.5795 79.9783 89.6818 80.217 89.8864C80.4556 90.089 80.592 90.3608 80.6261 90.7017ZM82.3526 94.0966C82.0761 94.0966 81.8346 94.0455 81.6282 93.9432C81.4218 93.839 81.2693 93.6884 81.1708 93.4915C81.0723 93.2945 81.0468 93.053 81.0941 92.767C81.1358 92.5208 81.2172 92.3182 81.3384 92.1591C81.4615 92 81.6112 91.8741 81.7873 91.7812C81.9634 91.6866 82.1547 91.6155 82.3612 91.5682C82.5676 91.5208 82.7759 91.4858 82.9862 91.4631C83.2513 91.4328 83.4663 91.4072 83.631 91.3864C83.7977 91.3655 83.9227 91.3333 84.006 91.2898C84.0894 91.2443 84.1396 91.1705 84.1566 91.0682V91.0483C84.1964 90.8021 84.1604 90.6108 84.0487 90.4744C83.9388 90.3362 83.7475 90.267 83.4748 90.267C83.1907 90.267 82.9521 90.3295 82.7589 90.4545C82.5676 90.5795 82.4265 90.7197 82.3356 90.875L81.5742 90.6932C81.7106 90.428 81.8839 90.214 82.0941 90.0511C82.3062 89.8864 82.5382 89.767 82.7901 89.6932C83.042 89.6174 83.2996 89.5795 83.5629 89.5795C83.7371 89.5795 83.918 89.6004 84.1055 89.642C84.293 89.6818 84.4634 89.7557 84.6168 89.8636C84.7721 89.9716 84.8877 90.1259 84.9634 90.3267C85.0392 90.5256 85.0505 90.7841 84.9975 91.1023L84.5174 94H83.6879L83.7901 93.4034H83.756C83.6841 93.5133 83.5837 93.6212 83.4549 93.7273C83.328 93.8333 83.1727 93.9214 82.989 93.9915C82.8053 94.0616 82.5932 94.0966 82.3526 94.0966ZM82.6424 93.4148C82.8791 93.4148 83.0884 93.3684 83.2702 93.2756C83.454 93.1828 83.6026 93.0616 83.7163 92.9119C83.8299 92.7604 83.9009 92.5985 83.9293 92.4261L84.0231 91.8636C83.9871 91.8939 83.9237 91.9214 83.8327 91.946C83.7437 91.9706 83.6433 91.9924 83.5316 92.0114C83.4199 92.0303 83.31 92.0464 83.2021 92.0597C83.096 92.0729 83.0079 92.0852 82.9379 92.0966C82.7712 92.1174 82.6149 92.1525 82.4691 92.2017C82.3252 92.2509 82.2049 92.322 82.1083 92.4148C82.0117 92.5057 81.9511 92.6269 81.9265 92.7784C81.8924 92.9886 81.9426 93.1477 82.0771 93.2557C82.2134 93.3617 82.4019 93.4148 82.6424 93.4148ZM89.4698 90.7017L88.6772 90.8381C88.6602 90.7377 88.6251 90.643 88.5721 90.554C88.521 90.465 88.4424 90.393 88.3363 90.3381C88.2302 90.2812 88.0891 90.2528 87.913 90.2528C87.6687 90.2528 87.4547 90.3087 87.271 90.4205C87.0891 90.5322 86.985 90.6742 86.9585 90.8466C86.9338 90.9867 86.967 91.1004 87.0579 91.1875C87.1488 91.2727 87.3088 91.3437 87.538 91.4006L88.2085 91.5597C88.5948 91.6525 88.8713 91.7973 89.038 91.9943C89.2066 92.1894 89.2653 92.4432 89.2141 92.7557C89.1706 93.0152 89.0569 93.2453 88.8732 93.446C88.6914 93.6468 88.4585 93.804 88.1744 93.9176C87.8903 94.0313 87.574 94.0881 87.2255 94.0881C86.7293 94.0881 86.3429 93.983 86.0664 93.7727C85.7899 93.5625 85.6478 93.2652 85.6403 92.8807L86.4812 92.7557C86.4963 92.9697 86.573 93.1316 86.7113 93.2415C86.8514 93.3494 87.0456 93.4034 87.2937 93.4034C87.5778 93.4053 87.8155 93.3456 88.0067 93.2244C88.198 93.1032 88.3069 92.9564 88.3335 92.7841C88.3562 92.6496 88.3259 92.5379 88.2425 92.4489C88.1611 92.3598 88.0172 92.2917 87.8107 92.2443L87.1062 92.0824C86.7122 91.9896 86.4338 91.84 86.271 91.6335C86.1081 91.4271 86.0531 91.1676 86.1062 90.8551C86.1478 90.5994 86.2558 90.3769 86.43 90.1875C86.6062 89.9962 86.8287 89.8475 87.0977 89.7415C87.3666 89.6335 87.6639 89.5795 87.9897 89.5795C88.4651 89.5795 88.8221 89.6818 89.0607 89.8864C89.2994 90.089 89.4357 90.3608 89.4698 90.7017ZM93.5977 88.1818L94.4357 92.9205H94.5011L96.9016 88.1818H97.8505L94.7908 94H93.7766L92.6488 88.1818H93.5977ZM97.6566 94L98.3839 89.6364H99.2333L98.506 94H97.6566ZM98.9862 88.9545C98.8384 88.9545 98.7134 88.9053 98.6112 88.8068C98.5108 88.7064 98.4644 88.5871 98.4719 88.4489C98.4795 88.3087 98.5382 88.1894 98.6481 88.0909C98.7579 87.9905 98.8858 87.9403 99.0316 87.9403C99.1793 87.9403 99.3034 87.9905 99.4038 88.0909C99.5041 88.1894 99.5515 88.3087 99.5458 88.4489C99.5382 88.5871 99.4795 88.7064 99.3697 88.8068C99.2617 88.9053 99.1339 88.9545 98.9862 88.9545ZM101.277 94.0852C100.922 94.0852 100.622 93.9953 100.376 93.8153C100.132 93.6335 99.9585 93.375 99.8562 93.0398C99.7558 92.7027 99.7444 92.2983 99.8221 91.8267C99.9016 91.3551 100.048 90.9517 100.262 90.6165C100.476 90.2812 100.736 90.0246 101.041 89.8466C101.346 89.6686 101.674 89.5795 102.027 89.5795C102.297 89.5795 102.508 89.625 102.657 89.7159C102.809 89.8049 102.921 89.9091 102.993 90.0284C103.065 90.1477 103.118 90.2528 103.154 90.3438H103.203L103.564 88.1818H104.413L103.447 94H102.618L102.734 93.321H102.663C102.597 93.4138 102.505 93.5199 102.387 93.6392C102.272 93.7585 102.124 93.8627 101.944 93.9517C101.764 94.0407 101.542 94.0852 101.277 94.0852ZM101.564 93.3608C101.808 93.3608 102.027 93.2964 102.22 93.1676C102.415 93.0369 102.577 92.8561 102.706 92.625C102.836 92.3939 102.927 92.125 102.978 91.8182C103.029 91.5152 103.029 91.25 102.975 91.0227C102.922 90.7955 102.82 90.6184 102.669 90.4915C102.517 90.3646 102.317 90.3011 102.069 90.3011C101.814 90.3011 101.591 90.3674 101.402 90.5C101.212 90.6326 101.057 90.8134 100.936 91.0426C100.816 91.2718 100.733 91.5303 100.686 91.8182C100.636 92.1098 100.635 92.3722 100.68 92.6051C100.725 92.8381 100.821 93.0227 100.967 93.1591C101.113 93.2936 101.312 93.3608 101.564 93.3608ZM105.915 94.0966C105.639 94.0966 105.397 94.0455 105.191 93.9432C104.984 93.839 104.832 93.6884 104.733 93.4915C104.635 93.2945 104.609 93.053 104.657 92.767C104.698 92.5208 104.78 92.3182 104.901 92.1591C105.024 92 105.174 91.8741 105.35 91.7812C105.526 91.6866 105.717 91.6155 105.924 91.5682C106.13 91.5208 106.338 91.4858 106.549 91.4631C106.814 91.4328 107.029 91.4072 107.194 91.3864C107.36 91.3655 107.485 91.3333 107.569 91.2898C107.652 91.2443 107.702 91.1705 107.719 91.0682V91.0483C107.759 90.8021 107.723 90.6108 107.611 90.4744C107.501 90.3362 107.31 90.267 107.037 90.267C106.753 90.267 106.515 90.3295 106.321 90.4545C106.13 90.5795 105.989 90.7197 105.898 90.875L105.137 90.6932C105.273 90.428 105.446 90.214 105.657 90.0511C105.869 89.8864 106.101 89.767 106.353 89.6932C106.605 89.6174 106.862 89.5795 107.125 89.5795C107.3 89.5795 107.48 89.6004 107.668 89.642C107.855 89.6818 108.026 89.7557 108.179 89.8636C108.335 89.9716 108.45 90.1259 108.526 90.3267C108.602 90.5256 108.613 90.7841 108.56 91.1023L108.08 94H107.25L107.353 93.4034H107.319C107.247 93.5133 107.146 93.6212 107.017 93.7273C106.891 93.8333 106.735 93.9214 106.551 93.9915C106.368 94.0616 106.156 94.0966 105.915 94.0966ZM106.205 93.4148C106.442 93.4148 106.651 93.3684 106.833 93.2756C107.016 93.1828 107.165 93.0616 107.279 92.9119C107.392 92.7604 107.463 92.5985 107.492 92.4261L107.586 91.8636C107.55 91.8939 107.486 91.9214 107.395 91.946C107.306 91.9706 107.206 91.9924 107.094 92.0114C106.982 92.0303 106.873 92.0464 106.765 92.0597C106.658 92.0729 106.57 92.0852 106.5 92.0966C106.334 92.1174 106.177 92.1525 106.032 92.2017C105.888 92.2509 105.767 92.322 105.671 92.4148C105.574 92.5057 105.514 92.6269 105.489 92.7784C105.455 92.9886 105.505 93.1477 105.64 93.2557C105.776 93.3617 105.964 93.4148 106.205 93.4148ZM113.032 90.7017L112.24 90.8381C112.223 90.7377 112.188 90.643 112.135 90.554C112.083 90.465 112.005 90.393 111.899 90.3381C111.793 90.2812 111.652 90.2528 111.475 90.2528C111.231 90.2528 111.017 90.3087 110.833 90.4205C110.652 90.5322 110.547 90.6742 110.521 90.8466C110.496 90.9867 110.529 91.1004 110.62 91.1875C110.711 91.2727 110.871 91.3437 111.1 91.4006L111.771 91.5597C112.157 91.6525 112.434 91.7973 112.6 91.9943C112.769 92.1894 112.828 92.4432 112.777 92.7557C112.733 93.0152 112.619 93.2453 112.436 93.446C112.254 93.6468 112.021 93.804 111.737 93.9176C111.453 94.0313 111.136 94.0881 110.788 94.0881C110.292 94.0881 109.905 93.983 109.629 93.7727C109.352 93.5625 109.21 93.2652 109.203 92.8807L110.044 92.7557C110.059 92.9697 110.136 93.1316 110.274 93.2415C110.414 93.3494 110.608 93.4034 110.856 93.4034C111.14 93.4053 111.378 93.3456 111.569 93.2244C111.761 93.1032 111.869 92.9564 111.896 92.7841C111.919 92.6496 111.888 92.5379 111.805 92.4489C111.724 92.3598 111.58 92.2917 111.373 92.2443L110.669 92.0824C110.275 91.9896 109.996 91.84 109.833 91.6335C109.671 91.4271 109.616 91.1676 109.669 90.8551C109.71 90.5994 109.818 90.3769 109.993 90.1875C110.169 89.9962 110.391 89.8475 110.66 89.7415C110.929 89.6335 111.226 89.5795 111.552 89.5795C112.028 89.5795 112.385 89.6818 112.623 89.8864C112.862 90.089 112.998 90.3608 113.032 90.7017ZM121.348 88.1818L120.382 94H119.575L117.328 89.733H117.277L116.564 94H115.686L116.652 88.1818H117.464L119.714 92.4545H119.768L120.478 88.1818H121.348ZM123.452 94.0881C123.037 94.0881 122.691 93.9934 122.412 93.804C122.134 93.6127 121.938 93.3456 121.824 93.0028C121.712 92.6581 121.694 92.2576 121.767 91.8011C121.839 91.3542 121.984 90.964 122.202 90.6307C122.422 90.2973 122.696 90.0388 123.026 89.8551C123.357 89.6714 123.726 89.5795 124.131 89.5795C124.546 89.5795 124.891 89.6752 125.168 89.8665C125.446 90.0578 125.642 90.3258 125.756 90.6705C125.87 91.0152 125.89 91.4167 125.816 91.875C125.744 92.3182 125.597 92.7064 125.375 93.0398C125.156 93.3712 124.881 93.6288 124.551 93.8125C124.222 93.9962 123.855 94.0881 123.452 94.0881ZM123.5 93.375C123.773 93.375 124.011 93.303 124.213 93.1591C124.418 93.0152 124.585 92.8239 124.713 92.5852C124.842 92.3466 124.93 92.0852 124.978 91.8011C125.021 91.5265 125.02 91.2756 124.975 91.0483C124.931 90.8191 124.837 90.6354 124.691 90.4972C124.545 90.3589 124.342 90.2898 124.083 90.2898C123.81 90.2898 123.57 90.3627 123.364 90.5085C123.159 90.6525 122.993 90.8447 122.864 91.0852C122.737 91.3258 122.651 91.5881 122.605 91.8722C122.562 92.1449 122.562 92.3958 122.605 92.625C122.649 92.8523 122.744 93.0341 122.89 93.1705C123.035 93.3068 123.239 93.375 123.5 93.375ZM130.235 90.7017L129.443 90.8381C129.426 90.7377 129.391 90.643 129.338 90.554C129.287 90.465 129.208 90.393 129.102 90.3381C128.996 90.2812 128.855 90.2528 128.679 90.2528C128.434 90.2528 128.22 90.3087 128.037 90.4205C127.855 90.5322 127.751 90.6742 127.724 90.8466C127.699 90.9867 127.733 91.1004 127.824 91.1875C127.914 91.2727 128.074 91.3437 128.304 91.4006L128.974 91.5597C129.36 91.6525 129.637 91.7973 129.804 91.9943C129.972 92.1894 130.031 92.4432 129.98 92.7557C129.936 93.0152 129.823 93.2453 129.639 93.446C129.457 93.6468 129.224 93.804 128.94 93.9176C128.656 94.0313 128.34 94.0881 127.991 94.0881C127.495 94.0881 127.109 93.983 126.832 93.7727C126.556 93.5625 126.413 93.2652 126.406 92.8807L127.247 92.7557C127.262 92.9697 127.339 93.1316 127.477 93.2415C127.617 93.3494 127.811 93.4034 128.059 93.4034C128.343 93.4053 128.581 93.3456 128.772 93.2244C128.964 93.1032 129.073 92.9564 129.099 92.7841C129.122 92.6496 129.092 92.5379 129.008 92.4489C128.927 92.3598 128.783 92.2917 128.576 92.2443L127.872 92.0824C127.478 91.9896 127.199 91.84 127.037 91.6335C126.874 91.4271 126.819 91.1676 126.872 90.8551C126.913 90.5994 127.021 90.3769 127.196 90.1875C127.372 89.9962 127.594 89.8475 127.863 89.7415C128.132 89.6335 128.43 89.5795 128.755 89.5795C129.231 89.5795 129.588 89.6818 129.826 89.8864C130.065 90.089 130.201 90.3608 130.235 90.7017ZM134.525 90.7017L133.732 90.8381C133.715 90.7377 133.68 90.643 133.627 90.554C133.576 90.465 133.497 90.393 133.391 90.3381C133.285 90.2812 133.144 90.2528 132.968 90.2528C132.723 90.2528 132.509 90.3087 132.326 90.4205C132.144 90.5322 132.04 90.6742 132.013 90.8466C131.989 90.9867 132.022 91.1004 132.113 91.1875C132.203 91.2727 132.364 91.3437 132.593 91.4006L133.263 91.5597C133.65 91.6525 133.926 91.7973 134.093 91.9943C134.261 92.1894 134.32 92.4432 134.269 92.7557C134.225 93.0152 134.112 93.2453 133.928 93.446C133.746 93.6468 133.513 93.804 133.229 93.9176C132.945 94.0313 132.629 94.0881 132.28 94.0881C131.784 94.0881 131.398 93.983 131.121 93.7727C130.845 93.5625 130.703 93.2652 130.695 92.8807L131.536 92.7557C131.551 92.9697 131.628 93.1316 131.766 93.2415C131.906 93.3494 132.1 93.4034 132.348 93.4034C132.632 93.4053 132.87 93.3456 133.061 93.2244C133.253 93.1032 133.362 92.9564 133.388 92.7841C133.411 92.6496 133.381 92.5379 133.297 92.4489C133.216 92.3598 133.072 92.2917 132.865 92.2443L132.161 92.0824C131.767 91.9896 131.489 91.84 131.326 91.6335C131.163 91.4271 131.108 91.1676 131.161 90.8551C131.203 90.5994 131.31 90.3769 131.485 90.1875C131.661 89.9962 131.883 89.8475 132.152 89.7415C132.421 89.6335 132.719 89.5795 133.044 89.5795C133.52 89.5795 133.877 89.6818 134.115 89.8864C134.354 90.089 134.49 90.3608 134.525 90.7017ZM136.85 94.0881C136.436 94.0881 136.089 93.9934 135.811 93.804C135.532 93.6127 135.336 93.3456 135.223 93.0028C135.111 92.6581 135.092 92.2576 135.166 91.8011C135.238 91.3542 135.383 90.964 135.6 90.6307C135.82 90.2973 136.095 90.0388 136.424 89.8551C136.756 89.6714 137.124 89.5795 137.529 89.5795C137.944 89.5795 138.29 89.6752 138.566 89.8665C138.845 90.0578 139.041 90.3258 139.154 90.6705C139.268 91.0152 139.288 91.4167 139.214 91.875C139.142 92.3182 138.995 92.7064 138.774 93.0398C138.554 93.3712 138.279 93.6288 137.95 93.8125C137.62 93.9962 137.254 94.0881 136.85 94.0881ZM136.899 93.375C137.172 93.375 137.409 93.303 137.612 93.1591C137.816 93.0152 137.983 92.8239 138.112 92.5852C138.241 92.3466 138.329 92.0852 138.376 91.8011C138.42 91.5265 138.419 91.2756 138.373 91.0483C138.33 90.8191 138.235 90.6354 138.089 90.4972C137.943 90.3589 137.741 90.2898 137.481 90.2898C137.208 90.2898 136.969 90.3627 136.762 90.5085C136.558 90.6525 136.391 90.8447 136.262 91.0852C136.136 91.3258 136.049 91.5881 136.004 91.8722C135.96 92.1449 135.96 92.3958 136.004 92.625C136.047 92.8523 136.142 93.0341 136.288 93.1705C136.434 93.3068 136.637 93.375 136.899 93.375ZM143.634 90.7017L142.841 90.8381C142.824 90.7377 142.789 90.643 142.736 90.554C142.685 90.465 142.606 90.393 142.5 90.3381C142.394 90.2812 142.253 90.2528 142.077 90.2528C141.833 90.2528 141.619 90.3087 141.435 90.4205C141.253 90.5322 141.149 90.6742 141.123 90.8466C141.098 90.9867 141.131 91.1004 141.222 91.1875C141.313 91.2727 141.473 91.3437 141.702 91.4006L142.373 91.5597C142.759 91.6525 143.035 91.7973 143.202 91.9943C143.371 92.1894 143.429 92.4432 143.378 92.7557C143.335 93.0152 143.221 93.2453 143.037 93.446C142.855 93.6468 142.623 93.804 142.338 93.9176C142.054 94.0313 141.738 94.0881 141.39 94.0881C140.893 94.0881 140.507 93.983 140.23 93.7727C139.954 93.5625 139.812 93.2652 139.804 92.8807L140.645 92.7557C140.66 92.9697 140.737 93.1316 140.875 93.2415C141.016 93.3494 141.21 93.4034 141.458 93.4034C141.742 93.4053 141.98 93.3456 142.171 93.2244C142.362 93.1032 142.471 92.9564 142.498 92.7841C142.52 92.6496 142.49 92.5379 142.407 92.4489C142.325 92.3598 142.181 92.2917 141.975 92.2443L141.27 92.0824C140.876 91.9896 140.598 91.84 140.435 91.6335C140.272 91.4271 140.217 91.1676 140.27 90.8551C140.312 90.5994 140.42 90.3769 140.594 90.1875C140.77 89.9962 140.993 89.8475 141.262 89.7415C141.531 89.6335 141.828 89.5795 142.154 89.5795C142.629 89.5795 142.986 89.6818 143.225 89.8864C143.463 90.089 143.6 90.3608 143.634 90.7017ZM150.165 89.7443C150.167 89.4583 150.074 89.2396 149.887 89.0881C149.701 88.9366 149.442 88.8608 149.108 88.8608C148.87 88.8608 148.657 88.8987 148.469 88.9744C148.283 89.0483 148.132 89.1506 148.015 89.2812C147.899 89.41 147.828 89.5568 147.801 89.7216C147.777 89.8598 147.789 89.9792 147.838 90.0795C147.89 90.1799 147.962 90.2642 148.057 90.3324C148.154 90.3987 148.26 90.4545 148.375 90.5C148.491 90.5436 148.603 90.5795 148.711 90.608L149.256 90.7557C149.432 90.8011 149.611 90.8627 149.793 90.9403C149.975 91.018 150.139 91.1203 150.284 91.2472C150.43 91.3741 150.539 91.5312 150.611 91.7188C150.683 91.9062 150.697 92.1307 150.654 92.392C150.597 92.7216 150.463 93.0142 150.253 93.2699C150.043 93.5256 149.766 93.7273 149.421 93.875C149.076 94.0227 148.676 94.0966 148.222 94.0966C147.786 94.0966 147.42 94.0275 147.123 93.8892C146.827 93.7509 146.61 93.5549 146.472 93.3011C146.334 93.0455 146.284 92.7424 146.324 92.392H147.208C147.187 92.6023 147.225 92.7775 147.321 92.9176C147.42 93.0559 147.558 93.1591 147.736 93.2273C147.914 93.2936 148.116 93.3267 148.341 93.3267C148.591 93.3267 148.819 93.2879 149.026 93.2102C149.232 93.1307 149.403 93.0208 149.537 92.8807C149.672 92.7386 149.754 92.5729 149.784 92.3835C149.815 92.2112 149.79 92.0701 149.711 91.9602C149.633 91.8504 149.516 91.7595 149.358 91.6875C149.203 91.6155 149.026 91.5521 148.827 91.4972L148.171 91.3097C147.726 91.1828 147.389 90.9962 147.159 90.75C146.93 90.5038 146.848 90.178 146.912 89.7727C146.969 89.4375 147.109 89.1449 147.333 88.8949C147.556 88.6449 147.835 88.4508 148.168 88.3125C148.501 88.1723 148.863 88.1023 149.253 88.1023C149.647 88.1023 149.982 88.1723 150.259 88.3125C150.535 88.4527 150.74 88.6458 150.873 88.892C151.005 89.1383 151.051 89.4223 151.012 89.7443H150.165ZM153.225 94.0881C152.811 94.0881 152.464 93.9934 152.186 93.804C151.907 93.6127 151.711 93.3456 151.598 93.0028C151.486 92.6581 151.467 92.2576 151.541 91.8011C151.613 91.3542 151.758 90.964 151.975 90.6307C152.195 90.2973 152.47 90.0388 152.799 89.8551C153.131 89.6714 153.499 89.5795 153.904 89.5795C154.319 89.5795 154.665 89.6752 154.941 89.8665C155.22 90.0578 155.416 90.3258 155.529 90.6705C155.643 91.0152 155.663 91.4167 155.589 91.875C155.517 92.3182 155.37 92.7064 155.149 93.0398C154.929 93.3712 154.654 93.6288 154.325 93.8125C153.995 93.9962 153.629 94.0881 153.225 94.0881ZM153.274 93.375C153.547 93.375 153.784 93.303 153.987 93.1591C154.191 93.0152 154.358 92.8239 154.487 92.5852C154.616 92.3466 154.704 92.0852 154.751 91.8011C154.795 91.5265 154.794 91.2756 154.748 91.0483C154.705 90.8191 154.61 90.6354 154.464 90.4972C154.318 90.3589 154.116 90.2898 153.856 90.2898C153.583 90.2898 153.344 90.3627 153.137 90.5085C152.933 90.6525 152.766 90.8447 152.637 91.0852C152.511 91.3258 152.424 91.5881 152.379 91.8722C152.335 92.1449 152.335 92.3958 152.379 92.625C152.422 92.8523 152.517 93.0341 152.663 93.1705C152.809 93.3068 153.012 93.375 153.274 93.375ZM157.466 91.4091L157.04 94H156.191L156.918 89.6364H157.733L157.614 90.3466H157.668C157.806 90.1136 157.995 89.928 158.233 89.7898C158.474 89.6496 158.758 89.5795 159.086 89.5795C159.381 89.5795 159.629 89.642 159.83 89.767C160.033 89.8902 160.176 90.0739 160.259 90.3182C160.344 90.5625 160.357 90.8646 160.299 91.2244L159.833 94H158.983L159.429 91.3267C159.48 91.0104 159.439 90.7633 159.304 90.5852C159.172 90.4053 158.961 90.3153 158.671 90.3153C158.474 90.3153 158.291 90.358 158.123 90.4432C157.956 90.5284 157.815 90.6534 157.699 90.8182C157.586 90.9811 157.508 91.178 157.466 91.4091ZM162.248 91.4091L161.821 94H160.972L161.938 88.1818H162.776L162.418 90.3466H162.472C162.61 90.1098 162.796 89.9233 163.029 89.7869C163.264 89.6487 163.551 89.5795 163.892 89.5795C164.192 89.5795 164.443 89.6411 164.645 89.7642C164.85 89.8873 164.994 90.071 165.077 90.3153C165.162 90.5578 165.176 90.8608 165.117 91.2244L164.651 94H163.801L164.245 91.3267C164.298 91.0066 164.256 90.7585 164.12 90.5824C163.983 90.4044 163.77 90.3153 163.48 90.3153C163.278 90.3153 163.09 90.358 162.918 90.4432C162.748 90.5284 162.604 90.6534 162.486 90.8182C162.369 90.9811 162.289 91.178 162.248 91.4091ZM167.64 94.0881C167.225 94.0881 166.878 93.9934 166.6 93.804C166.321 93.6127 166.125 93.3456 166.012 93.0028C165.9 92.6581 165.881 92.2576 165.955 91.8011C166.027 91.3542 166.172 90.964 166.39 90.6307C166.609 90.2973 166.884 90.0388 167.213 89.8551C167.545 89.6714 167.913 89.5795 168.319 89.5795C168.733 89.5795 169.079 89.6752 169.355 89.8665C169.634 90.0578 169.83 90.3258 169.944 90.6705C170.057 91.0152 170.077 91.4167 170.003 91.875C169.931 92.3182 169.784 92.7064 169.563 93.0398C169.343 93.3712 169.069 93.6288 168.739 93.8125C168.409 93.9962 168.043 94.0881 167.64 94.0881ZM167.688 93.375C167.961 93.375 168.198 93.303 168.401 93.1591C168.605 93.0152 168.772 92.8239 168.901 92.5852C169.03 92.3466 169.118 92.0852 169.165 91.8011C169.209 91.5265 169.208 91.2756 169.162 91.0483C169.119 90.8191 169.024 90.6354 168.878 90.4972C168.732 90.3589 168.53 90.2898 168.27 90.2898C167.998 90.2898 167.758 90.3627 167.551 90.5085C167.347 90.6525 167.18 90.8447 167.051 91.0852C166.925 91.3258 166.838 91.5881 166.793 91.8722C166.749 92.1449 166.749 92.3958 166.793 92.625C166.837 92.8523 166.931 93.0341 167.077 93.1705C167.223 93.3068 167.426 93.375 167.688 93.375ZM174.423 90.7017L173.63 90.8381C173.613 90.7377 173.578 90.643 173.525 90.554C173.474 90.465 173.395 90.393 173.289 90.3381C173.183 90.2812 173.042 90.2528 172.866 90.2528C172.622 90.2528 172.408 90.3087 172.224 90.4205C172.042 90.5322 171.938 90.6742 171.912 90.8466C171.887 90.9867 171.92 91.1004 172.011 91.1875C172.102 91.2727 172.262 91.3437 172.491 91.4006L173.162 91.5597C173.548 91.6525 173.824 91.7973 173.991 91.9943C174.16 92.1894 174.218 92.4432 174.167 92.7557C174.124 93.0152 174.01 93.2453 173.826 93.446C173.645 93.6468 173.412 93.804 173.127 93.9176C172.843 94.0313 172.527 94.0881 172.179 94.0881C171.682 94.0881 171.296 93.983 171.02 93.7727C170.743 93.5625 170.601 93.2652 170.593 92.8807L171.434 92.7557C171.449 92.9697 171.526 93.1316 171.664 93.2415C171.805 93.3494 171.999 93.4034 172.247 93.4034C172.531 93.4053 172.769 93.3456 172.96 93.2244C173.151 93.1032 173.26 92.9564 173.287 92.7841C173.309 92.6496 173.279 92.5379 173.196 92.4489C173.114 92.3598 172.97 92.2917 172.764 92.2443L172.059 92.0824C171.665 91.9896 171.387 91.84 171.224 91.6335C171.061 91.4271 171.006 91.1676 171.059 90.8551C171.101 90.5994 171.209 90.3769 171.383 90.1875C171.559 89.9962 171.782 89.8475 172.051 89.7415C172.32 89.6335 172.617 89.5795 172.943 89.5795C173.418 89.5795 173.775 89.6818 174.014 89.8864C174.252 90.089 174.389 90.3608 174.423 90.7017ZM177.63 88.9375L177.755 88.1818H182.258L182.133 88.9375H180.318L179.477 94H178.602L179.443 88.9375H177.63ZM183.456 94.0881C183.028 94.0881 182.673 93.9962 182.393 93.8125C182.115 93.6269 181.92 93.3665 181.808 93.0312C181.696 92.6941 181.678 92.2992 181.754 91.8466C181.828 91.3996 181.976 91.0057 182.2 90.6648C182.423 90.3239 182.702 90.0578 183.035 89.8665C183.37 89.6752 183.741 89.5795 184.146 89.5795C184.392 89.5795 184.624 89.6203 184.842 89.7017C185.062 89.7831 185.248 89.911 185.402 90.0852C185.555 90.2595 185.661 90.4858 185.72 90.7642C185.78 91.0407 185.779 91.3769 185.714 91.7727L185.666 92.0739H182.194L182.294 91.4375H184.93C184.97 91.214 184.959 91.0161 184.899 90.8438C184.838 90.6695 184.734 90.5322 184.586 90.4318C184.44 90.3314 184.257 90.2812 184.035 90.2812C183.808 90.2812 183.596 90.3409 183.399 90.4602C183.202 90.5795 183.037 90.732 182.904 90.9176C182.774 91.1013 182.691 91.2907 182.657 91.4858L182.558 92.0682C182.509 92.3864 182.517 92.642 182.583 92.8352C182.652 93.0284 182.771 93.1686 182.941 93.2557C183.112 93.3428 183.325 93.3864 183.581 93.3864C183.745 93.3864 183.898 93.3636 184.038 93.3182C184.18 93.2708 184.306 93.2017 184.416 93.1108C184.526 93.018 184.618 92.9025 184.691 92.7642L185.47 92.9091C185.366 93.1458 185.216 93.3532 185.021 93.5312C184.826 93.7074 184.596 93.8447 184.331 93.9432C184.067 94.0398 183.776 94.0881 183.456 94.0881ZM186.3 94L187.027 89.6364H187.843L187.723 90.3466H187.777C187.91 90.1061 188.09 89.9186 188.317 89.7841C188.546 89.6477 188.806 89.5795 189.096 89.5795C189.383 89.5795 189.615 89.6477 189.792 89.7841C189.97 89.9205 190.086 90.108 190.141 90.3466H190.186C190.327 90.1117 190.523 89.9252 190.775 89.7869C191.026 89.6487 191.31 89.5795 191.624 89.5795C192.016 89.5795 192.317 89.7045 192.527 89.9545C192.739 90.2027 192.804 90.5758 192.721 91.0739L192.232 94H191.38L191.857 91.1534C191.904 90.8561 191.859 90.642 191.721 90.5114C191.582 90.3788 191.401 90.3125 191.178 90.3125C190.901 90.3125 190.672 90.3977 190.49 90.5682C190.309 90.7367 190.197 90.9536 190.155 91.2188L189.686 94H188.843L189.328 91.0994C189.366 90.8608 189.323 90.6705 189.198 90.5284C189.075 90.3845 188.895 90.3125 188.658 90.3125C188.497 90.3125 188.341 90.3551 188.189 90.4403C188.04 90.5256 187.912 90.643 187.806 90.7926C187.7 90.9422 187.631 91.1146 187.598 91.3097L187.15 94H186.3ZM201.081 91.1477C200.979 91.7595 200.78 92.2841 200.485 92.7216C200.191 93.1591 199.831 93.4953 199.405 93.7301C198.981 93.9631 198.523 94.0795 198.03 94.0795C197.517 94.0795 197.078 93.9574 196.715 93.7131C196.353 93.4669 196.094 93.1174 195.936 92.6648C195.779 92.2102 195.753 91.6686 195.857 91.0398C195.959 90.428 196.157 89.9034 196.451 89.4659C196.746 89.0265 197.107 88.6894 197.533 88.4545C197.961 88.2197 198.423 88.1023 198.919 88.1023C199.429 88.1023 199.864 88.2254 200.223 88.4716C200.585 88.7159 200.845 89.0663 201.002 89.5227C201.159 89.9773 201.185 90.5189 201.081 91.1477ZM200.226 91.0398C200.304 90.5758 200.294 90.1856 200.198 89.8693C200.103 89.5511 199.941 89.3106 199.712 89.1477C199.483 88.9848 199.206 88.9034 198.882 88.9034C198.538 88.9034 198.215 88.9905 197.914 89.1648C197.614 89.339 197.359 89.5928 197.147 89.9261C196.935 90.2595 196.79 90.6667 196.712 91.1477C196.632 91.6117 196.641 92.0019 196.738 92.3182C196.834 92.6345 196.997 92.8741 197.226 93.0369C197.457 93.1979 197.735 93.2784 198.059 93.2784C198.401 93.2784 198.722 93.1922 199.022 93.0199C199.323 92.8456 199.579 92.5928 199.792 92.2614C200.004 91.928 200.149 91.5208 200.226 91.0398ZM204.784 88.1818H205.85L206.958 92.7045H207.026L209.623 88.1818H210.688L209.722 94H208.887L209.588 89.7898H209.534L207.12 93.9915H206.424L205.412 89.7869H205.358L204.654 94H203.819L204.784 88.1818ZM212.799 94.0881C212.371 94.0881 212.017 93.9962 211.737 93.8125C211.458 93.6269 211.263 93.3665 211.152 93.0312C211.04 92.6941 211.022 92.2992 211.098 91.8466C211.172 91.3996 211.32 91.0057 211.544 90.6648C211.767 90.3239 212.046 90.0578 212.379 89.8665C212.714 89.6752 213.084 89.5795 213.49 89.5795C213.736 89.5795 213.968 89.6203 214.186 89.7017C214.405 89.7831 214.592 89.911 214.745 90.0852C214.899 90.2595 215.005 90.4858 215.064 90.7642C215.124 91.0407 215.122 91.3769 215.058 91.7727L215.01 92.0739H211.538L211.637 91.4375H214.274C214.314 91.214 214.303 91.0161 214.243 90.8438C214.182 90.6695 214.078 90.5322 213.93 90.4318C213.784 90.3314 213.6 90.2812 213.379 90.2812C213.152 90.2812 212.94 90.3409 212.743 90.4602C212.546 90.5795 212.381 90.732 212.248 90.9176C212.118 91.1013 212.035 91.2907 212.001 91.4858L211.902 92.0682C211.852 92.3864 211.861 92.642 211.927 92.8352C211.995 93.0284 212.115 93.1686 212.285 93.2557C212.456 93.3428 212.669 93.3864 212.924 93.3864C213.089 93.3864 213.242 93.3636 213.382 93.3182C213.524 93.2708 213.65 93.2017 213.76 93.1108C213.869 93.018 213.961 92.9025 214.035 92.7642L214.814 92.9091C214.709 93.1458 214.56 93.3532 214.365 93.5312C214.17 93.7074 213.94 93.8447 213.674 93.9432C213.411 94.0398 213.119 94.0881 212.799 94.0881ZM219.462 90.7017L218.669 90.8381C218.652 90.7377 218.617 90.643 218.564 90.554C218.513 90.465 218.435 90.393 218.328 90.3381C218.222 90.2812 218.081 90.2528 217.905 90.2528C217.661 90.2528 217.447 90.3087 217.263 90.4205C217.081 90.5322 216.977 90.6742 216.951 90.8466C216.926 90.9867 216.959 91.1004 217.05 91.1875C217.141 91.2727 217.301 91.3437 217.53 91.4006L218.201 91.5597C218.587 91.6525 218.864 91.7973 219.03 91.9943C219.199 92.1894 219.257 92.4432 219.206 92.7557C219.163 93.0152 219.049 93.2453 218.865 93.446C218.684 93.6468 218.451 93.804 218.167 93.9176C217.882 94.0313 217.566 94.0881 217.218 94.0881C216.721 94.0881 216.335 93.983 216.059 93.7727C215.782 93.5625 215.64 93.2652 215.632 92.8807L216.473 92.7557C216.489 92.9697 216.565 93.1316 216.703 93.2415C216.844 93.3494 217.038 93.4034 217.286 93.4034C217.57 93.4053 217.808 93.3456 217.999 93.2244C218.19 93.1032 218.299 92.9564 218.326 92.7841C218.348 92.6496 218.318 92.5379 218.235 92.4489C218.153 92.3598 218.009 92.2917 217.803 92.2443L217.098 92.0824C216.704 91.9896 216.426 91.84 216.263 91.6335C216.1 91.4271 216.045 91.1676 216.098 90.8551C216.14 90.5994 216.248 90.3769 216.422 90.1875C216.598 89.9962 216.821 89.8475 217.09 89.7415C217.359 89.6335 217.656 89.5795 217.982 89.5795C218.457 89.5795 218.814 89.6818 219.053 89.8864C219.292 90.089 219.428 90.3608 219.462 90.7017ZM219.933 94L220.66 89.6364H221.475L221.356 90.3466H221.41C221.543 90.1061 221.723 89.9186 221.95 89.7841C222.179 89.6477 222.439 89.5795 222.728 89.5795C223.016 89.5795 223.248 89.6477 223.424 89.7841C223.602 89.9205 223.719 90.108 223.774 90.3466H223.819C223.959 90.1117 224.155 89.9252 224.407 89.7869C224.659 89.6487 224.942 89.5795 225.257 89.5795C225.649 89.5795 225.95 89.7045 226.16 89.9545C226.372 90.2027 226.437 90.5758 226.353 91.0739L225.865 94H225.012L225.49 91.1534C225.537 90.8561 225.492 90.642 225.353 90.5114C225.215 90.3788 225.034 90.3125 224.811 90.3125C224.534 90.3125 224.305 90.3977 224.123 90.5682C223.941 90.7367 223.83 90.9536 223.788 91.2188L223.319 94H222.475L222.961 91.0994C222.999 90.8608 222.956 90.6705 222.831 90.5284C222.708 90.3845 222.528 90.3125 222.291 90.3125C222.13 90.3125 221.974 90.3551 221.822 90.4403C221.672 90.5256 221.545 90.643 221.439 90.7926C221.333 90.9422 221.263 91.1146 221.231 91.3097L220.782 94H219.933ZM228.858 94.0881C228.444 94.0881 228.097 93.9934 227.819 93.804C227.54 93.6127 227.344 93.3456 227.23 93.0028C227.119 92.6581 227.1 92.2576 227.174 91.8011C227.246 91.3542 227.391 90.964 227.608 90.6307C227.828 90.2973 228.103 90.0388 228.432 89.8551C228.764 89.6714 229.132 89.5795 229.537 89.5795C229.952 89.5795 230.298 89.6752 230.574 89.8665C230.853 90.0578 231.049 90.3258 231.162 90.6705C231.276 91.0152 231.296 91.4167 231.222 91.875C231.15 92.3182 231.003 92.7064 230.782 93.0398C230.562 93.3712 230.287 93.6288 229.958 93.8125C229.628 93.9962 229.262 94.0881 228.858 94.0881ZM228.907 93.375C229.179 93.375 229.417 93.303 229.62 93.1591C229.824 93.0152 229.991 92.8239 230.12 92.5852C230.248 92.3466 230.337 92.0852 230.384 91.8011C230.427 91.5265 230.426 91.2756 230.381 91.0483C230.337 90.8191 230.243 90.6354 230.097 90.4972C229.951 90.3589 229.748 90.2898 229.489 90.2898C229.216 90.2898 228.977 90.3627 228.77 90.5085C228.566 90.6525 228.399 90.8447 228.27 91.0852C228.143 91.3258 228.057 91.5881 228.012 91.8722C227.968 92.1449 227.968 92.3958 228.012 92.625C228.055 92.8523 228.15 93.0341 228.296 93.1705C228.442 93.3068 228.645 93.375 228.907 93.375ZM235.48 88.1818L236.319 92.9205H236.384L238.784 88.1818H239.733L236.674 94H235.659L234.532 88.1818H235.48ZM240.368 94.0966C240.092 94.0966 239.85 94.0455 239.644 93.9432C239.437 93.839 239.285 93.6884 239.186 93.4915C239.088 93.2945 239.062 93.053 239.11 92.767C239.151 92.5208 239.233 92.3182 239.354 92.1591C239.477 92 239.627 91.8741 239.803 91.7812C239.979 91.6866 240.17 91.6155 240.377 91.5682C240.583 91.5208 240.792 91.4858 241.002 91.4631C241.267 91.4328 241.482 91.4072 241.647 91.3864C241.813 91.3655 241.938 91.3333 242.022 91.2898C242.105 91.2443 242.155 91.1705 242.172 91.0682V91.0483C242.212 90.8021 242.176 90.6108 242.064 90.4744C241.954 90.3362 241.763 90.267 241.49 90.267C241.206 90.267 240.968 90.3295 240.775 90.4545C240.583 90.5795 240.442 90.7197 240.351 90.875L239.59 90.6932C239.726 90.428 239.9 90.214 240.11 90.0511C240.322 89.8864 240.554 89.767 240.806 89.6932C241.058 89.6174 241.315 89.5795 241.578 89.5795C241.753 89.5795 241.934 89.6004 242.121 89.642C242.309 89.6818 242.479 89.7557 242.632 89.8636C242.788 89.9716 242.903 90.1259 242.979 90.3267C243.055 90.5256 243.066 90.7841 243.013 91.1023L242.533 94H241.703L241.806 93.4034H241.772C241.7 93.5133 241.599 93.6212 241.471 93.7273C241.344 93.8333 241.188 93.9214 241.005 93.9915C240.821 94.0616 240.609 94.0966 240.368 94.0966ZM240.658 93.4148C240.895 93.4148 241.104 93.3684 241.286 93.2756C241.47 93.1828 241.618 93.0616 241.732 92.9119C241.846 92.7604 241.917 92.5985 241.945 92.4261L242.039 91.8636C242.003 91.8939 241.939 91.9214 241.848 91.946C241.759 91.9706 241.659 91.9924 241.547 92.0114C241.435 92.0303 241.326 92.0464 241.218 92.0597C241.112 92.0729 241.024 92.0852 240.953 92.0966C240.787 92.1174 240.631 92.1525 240.485 92.2017C240.341 92.2509 240.221 92.322 240.124 92.4148C240.027 92.5057 239.967 92.6269 239.942 92.7784C239.908 92.9886 239.958 93.1477 240.093 93.2557C240.229 93.3617 240.417 93.4148 240.658 93.4148ZM245.48 88.1818L244.514 94H243.664L244.63 88.1818H245.48ZM247.515 94.0881C247.1 94.0881 246.753 93.9934 246.475 93.804C246.196 93.6127 246 93.3456 245.887 93.0028C245.775 92.6581 245.756 92.2576 245.83 91.8011C245.902 91.3542 246.047 90.964 246.265 90.6307C246.484 90.2973 246.759 90.0388 247.088 89.8551C247.42 89.6714 247.788 89.5795 248.194 89.5795C248.608 89.5795 248.954 89.6752 249.23 89.8665C249.509 90.0578 249.705 90.3258 249.819 90.6705C249.932 91.0152 249.952 91.4167 249.878 91.875C249.806 92.3182 249.659 92.7064 249.438 93.0398C249.218 93.3712 248.944 93.6288 248.614 93.8125C248.284 93.9962 247.918 94.0881 247.515 94.0881ZM247.563 93.375C247.836 93.375 248.073 93.303 248.276 93.1591C248.48 93.0152 248.647 92.8239 248.776 92.5852C248.905 92.3466 248.993 92.0852 249.04 91.8011C249.084 91.5265 249.083 91.2756 249.037 91.0483C248.994 90.8191 248.899 90.6354 248.753 90.4972C248.607 90.3589 248.405 90.2898 248.145 90.2898C247.873 90.2898 247.633 90.3627 247.426 90.5085C247.222 90.6525 247.055 90.8447 246.926 91.0852C246.8 91.3258 246.713 91.5881 246.668 91.8722C246.624 92.1449 246.624 92.3958 246.668 92.625C246.712 92.8523 246.806 93.0341 246.952 93.1705C247.098 93.3068 247.301 93.375 247.563 93.375ZM250.477 94L251.204 89.6364H252.025L251.909 90.3295H251.954C252.072 90.0947 252.243 89.91 252.468 89.7756C252.694 89.6392 252.934 89.571 253.19 89.571C253.245 89.571 253.307 89.5729 253.377 89.5767C253.448 89.5786 253.504 89.5833 253.548 89.5909L253.412 90.4034C253.379 90.3939 253.321 90.3835 253.235 90.3722C253.15 90.3589 253.062 90.3523 252.971 90.3523C252.772 90.3523 252.588 90.3949 252.417 90.4801C252.247 90.5634 252.104 90.6799 251.988 90.8295C251.873 90.9773 251.798 91.1458 251.764 91.3352L251.326 94H250.477ZM255.392 88.1818L255.306 88.7273C255.28 88.8883 255.221 89.0578 255.13 89.2358C255.041 89.4119 254.929 89.5814 254.792 89.7443C254.658 89.9072 254.509 90.0473 254.346 90.1648L253.971 89.8636C254.109 89.7008 254.234 89.5275 254.346 89.3438C254.458 89.16 254.533 88.9574 254.571 88.7358L254.664 88.1818H255.392ZM256.838 88.1818L256.752 88.7273C256.726 88.8883 256.667 89.0578 256.576 89.2358C256.487 89.4119 256.375 89.5814 256.238 89.7443C256.104 89.9072 255.954 90.0473 255.789 90.1648L255.414 89.8636C255.553 89.7008 255.678 89.5275 255.789 89.3438C255.903 89.16 255.979 88.9574 256.017 88.7358L256.11 88.1818H256.838Z" fill="white"/>
<path d="M120.152 54.032V52.808H121.24C121.512 52.808 121.757 52.768 121.976 52.688C122.194 52.6027 122.381 52.4853 122.536 52.336C122.69 52.1813 122.808 51.9973 122.888 51.784C122.968 51.5653 123.008 51.3253 123.008 51.064C123.008 50.792 122.968 50.5493 122.888 50.336C122.808 50.1227 122.69 49.9413 122.536 49.792C122.381 49.6427 122.194 49.5307 121.976 49.456C121.757 49.376 121.512 49.336 121.24 49.336H120.152V48.112H121.168C121.696 48.112 122.157 48.1893 122.552 48.344C122.946 48.4987 123.277 48.7093 123.544 48.976C123.81 49.2427 124.008 49.5493 124.136 49.896C124.269 50.2373 124.336 50.5973 124.336 50.976V51.152C124.336 51.504 124.269 51.8533 124.136 52.2C124.008 52.5413 123.81 52.8507 123.544 53.128C123.277 53.4 122.946 53.6187 122.552 53.784C122.157 53.9493 121.696 54.032 121.168 54.032H120.152ZM119 54.032V48.112H120.312V54.032H119ZM125.25 54V48.16H126.53V54H125.25ZM126.37 54V52.912H128.922V54H126.37ZM126.37 51.576V50.488H128.738V51.576H126.37ZM126.37 49.248V48.16H128.866V49.248H126.37ZM131.288 54L129.512 48.16H130.864L132.272 53.088L131.968 52.936H132.784L132.464 53.088L133.768 48.16H135.08L133.424 54H131.288ZM137.601 54V48.16H138.913V54H137.601ZM138.753 51.648V50.56H141.009V51.648H138.753ZM138.753 49.248V48.16H141.105V49.248H138.753ZM142.078 54V48.112H143.39V54H142.078ZM145.622 54L143.91 51.488H145.35L147.142 54H145.622ZM143.038 52.128V51.096H144.478C144.67 51.096 144.835 51.0587 144.974 50.984C145.118 50.904 145.227 50.7947 145.302 50.656C145.382 50.512 145.422 50.3467 145.422 50.16C145.422 49.9733 145.382 49.8107 145.302 49.672C145.227 49.528 145.118 49.4187 144.974 49.344C144.835 49.264 144.67 49.224 144.478 49.224H143.038V48.112H144.374C144.859 48.112 145.281 48.1867 145.638 48.336C145.995 48.48 146.27 48.696 146.462 48.984C146.654 49.272 146.75 49.6347 146.75 50.072V50.2C146.75 50.632 146.651 50.992 146.454 51.28C146.262 51.5627 145.987 51.776 145.63 51.92C145.278 52.0587 144.859 52.128 144.374 52.128H143.038ZM150.651 54.152C150.123 54.152 149.662 54.0613 149.267 53.88C148.878 53.6933 148.555 53.4507 148.299 53.152C148.043 52.848 147.851 52.52 147.723 52.168C147.601 51.816 147.539 51.4773 147.539 51.152V50.976C147.539 50.6133 147.603 50.256 147.731 49.904C147.865 49.5467 148.062 49.224 148.323 48.936C148.585 48.648 148.91 48.4187 149.299 48.248C149.689 48.072 150.139 47.984 150.651 47.984C151.163 47.984 151.614 48.072 152.003 48.248C152.393 48.4187 152.718 48.648 152.979 48.936C153.241 49.224 153.438 49.5467 153.571 49.904C153.705 50.256 153.771 50.6133 153.771 50.976V51.152C153.771 51.4773 153.707 51.816 153.579 52.168C153.451 52.52 153.259 52.848 153.003 53.152C152.747 53.4507 152.422 53.6933 152.027 53.88C151.638 54.0613 151.179 54.152 150.651 54.152ZM150.651 52.928C150.929 52.928 151.177 52.88 151.395 52.784C151.619 52.688 151.809 52.5547 151.963 52.384C152.123 52.2133 152.243 52.016 152.323 51.792C152.403 51.568 152.443 51.328 152.443 51.072C152.443 50.8 152.401 50.552 152.315 50.328C152.235 50.0987 152.115 49.9013 151.955 49.736C151.801 49.5653 151.614 49.4347 151.395 49.344C151.177 49.2533 150.929 49.208 150.651 49.208C150.374 49.208 150.126 49.2533 149.907 49.344C149.689 49.4347 149.499 49.5653 149.339 49.736C149.185 49.9013 149.067 50.0987 148.987 50.328C148.907 50.552 148.867 50.8 148.867 51.072C148.867 51.328 148.907 51.568 148.987 51.792C149.067 52.016 149.185 52.2133 149.339 52.384C149.499 52.5547 149.689 52.688 149.907 52.784C150.126 52.88 150.374 52.928 150.651 52.928ZM154.765 54V48.16H156.917L159.117 52.936H159.389L159.229 53.08V48.16H160.461V54H158.293L156.093 49.224H155.821L155.981 49.08V54H154.765ZM162.933 54V49.144H164.245V54H162.933ZM161.293 49.304V48.16H165.893V49.304H161.293ZM165.93 52.304V51.168H169.298V52.304H165.93ZM170.304 54V48.16H171.584V54H170.304ZM171.424 54V52.912H173.976V54H171.424ZM171.424 51.576V50.488H173.792V51.576H171.424ZM171.424 49.248V48.16H173.92V49.248H171.424ZM175.054 54V48.16H177.206L179.406 52.936H179.678L179.518 53.08V48.16H180.75V54H178.582L176.382 49.224H176.11L176.27 49.08V54H175.054ZM183.214 54.032V52.808H184.302C184.574 52.808 184.82 52.768 185.038 52.688C185.257 52.6027 185.444 52.4853 185.598 52.336C185.753 52.1813 185.87 51.9973 185.95 51.784C186.03 51.5653 186.07 51.3253 186.07 51.064C186.07 50.792 186.03 50.5493 185.95 50.336C185.87 50.1227 185.753 49.9413 185.598 49.792C185.444 49.6427 185.257 49.5307 185.038 49.456C184.82 49.376 184.574 49.336 184.302 49.336H183.214V48.112H184.23C184.758 48.112 185.22 48.1893 185.614 48.344C186.009 48.4987 186.34 48.7093 186.606 48.976C186.873 49.2427 187.07 49.5493 187.198 49.896C187.332 50.2373 187.398 50.5973 187.398 50.976V51.152C187.398 51.504 187.332 51.8533 187.198 52.2C187.07 52.5413 186.873 52.8507 186.606 53.128C186.34 53.4 186.009 53.6187 185.614 53.784C185.22 53.9493 184.758 54.032 184.23 54.032H183.214ZM182.062 54.032V48.112H183.374V54.032H182.062Z" fill="white"/>
<rect x="41" y="384" width="233" height="55" rx="16" fill="#D9D9D9" fill-opacity="0.15"/>
<defs>
<clipPath id="clip0_21_1418">
<rect x="53" y="140" width="200" height="200" rx="16" fill="white"/>
</clipPath>
</defs>
</svg>
