<svg width="41" height="40" viewBox="0 0 41 40" fill="none" xmlns="http://www.w3.org/2000/svg">
<path d="M29.6994 1H10.6552C5.39626 1 1.13306 5.2632 1.13306 10.5221V29.5664C1.13306 34.8253 5.39626 39.0885 10.6552 39.0885H29.6994C34.9584 39.0885 39.2216 34.8253 39.2216 29.5664V10.5221C39.2216 5.2632 34.9584 1 29.6994 1Z" stroke="#FBF9FC" stroke-width="1.64017" stroke-linecap="round" stroke-linejoin="round"/>
<path d="M27.7951 18.8448C28.0301 20.4297 27.7594 22.0485 27.0214 23.4707C26.2835 24.8929 25.1159 26.0462 23.6846 26.7666C22.2534 27.487 20.6315 27.7377 19.0496 27.4831C17.4676 27.2286 16.0063 26.4817 14.8733 25.3487C13.7403 24.2157 12.9934 22.7543 12.7388 21.1724C12.4843 19.5905 12.735 17.9686 13.4554 16.5373C14.1758 15.1061 15.3291 13.9385 16.7513 13.2005C18.1735 12.4626 19.7922 12.1919 21.3772 12.4269C22.9939 12.6666 24.4906 13.42 25.6463 14.5757C26.802 15.7313 27.5554 17.2281 27.7951 18.8448Z" stroke="#FBF9FC" stroke-width="1.64017" stroke-linecap="round" stroke-linejoin="round"/>
<path d="M30.6519 9.56885H30.6726" stroke="#FBF9FC" stroke-width="1.64017" stroke-linecap="round" stroke-linejoin="round"/>
</svg>
