<svg width="43" height="31" viewBox="0 0 43 31" fill="none" xmlns="http://www.w3.org/2000/svg">
<path d="M40.9376 5.56095C40.717 4.67956 40.2677 3.872 39.6351 3.21984C39.0025 2.56767 38.209 2.094 37.3347 1.84665C34.1404 1.06665 21.3633 1.06665 21.3633 1.06665C21.3633 1.06665 8.5861 1.06665 5.39181 1.92094C4.51755 2.16828 3.72405 2.64196 3.09145 3.29412C2.45885 3.94629 2.00955 4.75385 1.78894 5.63523C1.20434 8.87699 0.918379 12.1655 0.934655 15.4595C0.913817 18.7783 1.1998 22.092 1.78894 25.3581C2.03215 26.2121 2.49151 26.989 3.12264 27.6136C3.75377 28.2382 4.53533 28.6895 5.39181 28.9239C8.5861 29.7781 21.3633 29.7781 21.3633 29.7781C21.3633 29.7781 34.1404 29.7781 37.3347 28.9239C38.209 28.6765 39.0025 28.2028 39.6351 27.5507C40.2677 26.8985 40.717 26.0909 40.9376 25.2096C41.5177 21.9922 41.8036 18.7287 41.7919 15.4595C41.8127 12.1407 41.5268 8.82711 40.9376 5.56095V5.56095Z" stroke="#FBF9FC" stroke-width="1.64017" stroke-linecap="round" stroke-linejoin="round"/>
<path d="M17.1846 21.533L27.8632 15.4601L17.1846 9.38721V21.533Z" stroke="#FBF9FC" stroke-width="1.64017" stroke-linecap="round" stroke-linejoin="round"/>
</svg>
