<svg width="56" height="81" viewBox="0 0 56 81" fill="none" xmlns="http://www.w3.org/2000/svg">
<path d="M14.62 0C6.56613 0 0 6.56613 0 14.62C0 20.2965 3.35388 25.0997 8.09945 27.52C3.35386 29.9403 0 34.7435 0 40.42C0 46.0965 3.35388 50.8997 8.09945 53.32C3.35386 55.7403 0 60.5435 0 66.22C0 74.2739 6.56613 80.84 14.62 80.84C22.6739 80.84 29.24 74.2739 29.24 66.22V53.32V47.5687C31.5472 51.947 36.0032 55.04 41.28 55.04C48.8591 55.04 55.04 48.8591 55.04 41.28C55.04 35.0506 50.785 29.9773 45.0895 28.2927C50.8321 26.3189 55.04 21.0188 55.04 14.62C55.04 6.56613 48.4739 0 40.42 0H27.52H14.62ZM14.62 3.44H25.8V25.8H14.62C8.42539 25.8 3.44 20.8146 3.44 14.62C3.44 8.42539 8.42539 3.44 14.62 3.44ZM29.24 3.44H40.42C46.6146 3.44 51.6 8.42539 51.6 14.62C51.6 20.8146 46.6146 25.8 40.42 25.8H29.24V3.44ZM14.62 29.24H25.8V51.6H14.62C8.42539 51.6 3.44 46.6146 3.44 40.42C3.44 34.2254 8.42539 29.24 14.62 29.24ZM29.24 29.24H34.9912C32.5232 30.5406 30.5406 32.5232 29.24 34.9912V29.24ZM41.28 30.96C47 30.96 51.6 35.5601 51.6 41.28C51.6 46.9999 47 51.6 41.28 51.6C35.56 51.6 30.96 46.9999 30.96 41.28C30.96 35.5601 35.56 30.96 41.28 30.96ZM14.62 55.04H25.8V66.22C25.8 72.4146 20.8146 77.4 14.62 77.4C8.42539 77.4 3.44 72.4146 3.44 66.22C3.44 60.0254 8.42539 55.04 14.62 55.04Z" fill="#1BD845"/>
</svg>
