<svg width="97" height="97" viewBox="0 0 97 97" fill="none" xmlns="http://www.w3.org/2000/svg">
<path d="M14.8997 23.1244C14.738 18.4542 18.3775 14.1458 23.2983 14.1458H73.7099C78.6307 14.1458 82.2702 18.4542 82.1065 23.1244C81.9509 27.6126 82.153 33.4246 83.6161 38.1654C85.0832 42.9204 87.5587 45.9254 91.6125 46.3114V50.6905C87.5587 51.0765 85.0852 54.0815 83.6161 58.8365C82.153 63.5754 81.9509 69.3893 82.1065 73.8776C82.2682 78.5457 78.6286 82.8541 73.7099 82.8541H23.2983C18.3796 82.8541 14.738 78.5457 14.9017 73.8755C15.0573 69.3873 14.8552 63.5754 13.3921 58.8345C11.925 54.0795 9.44344 51.0745 5.38965 50.6885V46.3094C9.44344 45.9234 11.923 42.9184 13.3921 38.1634C14.8532 33.4246 15.0573 27.6126 14.8997 23.1244Z" fill="#1BD845"/>
<path d="M54.7101 47.4168V47.3602C58.4547 46.7135 61.3769 43.2034 61.3769 39.3375C61.3769 36.6053 60.326 34.2895 58.3375 32.6445C56.3551 31.0036 53.5744 30.1367 50.2926 30.1367H35.2637V66.8491H50.3694C54.2938 66.8491 57.5534 65.8912 59.7925 64.0765C62.0336 62.2598 63.2199 59.6166 63.2199 56.4317C63.2178 51.6201 59.8026 48.0069 54.7101 47.4168ZM47.6716 45.687H41.2433V34.9402H48.8901C53.0854 34.9402 55.3952 36.7812 55.3952 40.1236C55.3972 43.7106 52.6529 45.687 47.6716 45.687ZM41.2433 50.1853H48.8396C54.3282 50.1853 57.1089 52.1678 57.1089 56.0781C57.1089 59.9823 54.3666 62.0456 49.1771 62.0456H41.2433V50.1853Z" fill="white"/>
</svg>
