<svg width="97" height="97" viewBox="0 0 97 97" fill="none" xmlns="http://www.w3.org/2000/svg">
<path d="M48.5 19.4081C35.5666 19.4081 27.4833 25.8727 24.25 38.802C29.1 32.3374 34.7583 29.9144 41.225 31.529C44.915 32.4505 47.5522 35.1281 50.4723 38.0907C55.2253 42.9144 60.728 48.5 72.75 48.5C85.6833 48.5 93.7666 42.0353 96.9999 29.104C92.1499 35.5687 86.4916 37.9937 80.0249 36.379C76.3369 35.4575 73.6997 32.7799 70.7796 29.8174C66.0246 24.9916 60.5199 19.4081 48.5 19.4081ZM24.25 48.5C11.3167 48.5 3.23333 54.9646 0 67.8959C4.85 61.4313 10.5083 59.0063 16.975 60.623C20.663 61.5465 23.3002 64.222 26.2203 67.1826C30.9753 72.0083 36.4801 77.5939 48.5 77.5939C61.4333 77.5939 69.5166 71.1293 72.75 58.198C67.9 64.6626 62.2416 67.0876 55.775 65.4709C52.0849 64.5494 49.4477 61.8718 46.5276 58.9113C41.7746 54.0856 36.2719 48.5 24.25 48.5Z" fill="#1BD845"/>
</svg>
