<svg width="108" height="108" viewBox="0 0 108 108" fill="none" xmlns="http://www.w3.org/2000/svg">
<path d="M13.5 94.4999V13.5H94.4999V94.4999H13.5Z" fill="#1BD845"/>
<path d="M66.4605 74.1307C68.0175 76.6597 69.7095 79.083 73.2937 79.083C76.3042 79.083 77.8837 77.5867 77.8837 75.5167C77.8837 73.0395 76.2502 72.1597 72.9382 70.7175L71.1225 69.9435C65.8822 67.7205 62.397 64.935 62.397 59.0512C62.397 53.6287 66.5482 49.5022 73.035 49.5022C77.6542 49.5022 80.973 51.102 83.367 55.2915L77.7105 58.9072C76.4662 56.6842 75.1207 55.809 73.035 55.809C70.9065 55.809 69.5587 57.1522 69.5587 58.9072C69.5587 61.0762 70.9087 61.9537 74.025 63.297L75.8407 64.071C82.017 66.7012 85.5 69.3877 85.5 75.4267C85.5 81.9337 80.361 85.5 73.4625 85.5C66.7147 85.5 62.883 82.1137 60.75 77.922L66.4605 74.1307ZM40.392 74.3152C41.5305 76.3537 43.2608 77.922 45.7493 77.922C48.1298 77.922 49.5 76.9815 49.5 73.3252V49.5H56.9993V74.4772C56.9993 82.053 52.605 85.5 46.188 85.5C40.3898 85.5 36.2048 81.5715 34.4993 77.922L40.392 74.3152Z" fill="#000001"/>
</svg>
