<svg width="79" height="76" viewBox="0 0 79 76" fill="none" xmlns="http://www.w3.org/2000/svg">
<g clip-path="url(#clip0_28_57)">
<path d="M65.3324 20.9654L47.3182 3.48535C47.0244 3.20035 46.6267 3.04004 46.2106 3.04004H18.0021C14.9855 3.04004 12.5317 5.41504 12.5317 8.33035V66.7316C12.5317 70.1635 15.4199 72.9601 18.975 72.9601H59.3481C62.9032 72.9601 65.7914 70.1635 65.7914 66.7316V22.0401C65.7914 21.6363 65.6262 21.2504 65.3324 20.9654ZM40.728 57.76H26.6299V54.72H40.728V57.76ZM51.6932 51.68H26.6299V48.64H51.6932V51.68ZM51.6932 45.6H26.6299V42.56H51.6932V45.6ZM51.6932 39.52H26.6299V36.48H51.6932V39.52ZM49.6067 21.28C48.1626 21.28 46.9939 20.146 46.9939 18.7447V7.46941L61.2266 21.28H49.6067Z" fill="#12822B"/>
</g>
<defs>
<clipPath id="clip0_28_57">
<rect width="78.323" height="76" fill="white"/>
</clipPath>
</defs>
</svg>
