<svg width="79" height="76" viewBox="0 0 79 76" fill="none" xmlns="http://www.w3.org/2000/svg">
<g clip-path="url(#clip0_28_52)">
<path d="M25.0634 4.56006C13.8319 4.56006 4.69946 13.4217 4.69946 24.3201V51.6801C4.69946 62.5785 13.8319 71.4401 25.0634 71.4401H53.2597C64.4912 71.4401 73.6237 62.5785 73.6237 51.6801V24.3201C73.6237 13.4217 64.4912 4.56006 53.2597 4.56006H25.0634ZM57.9591 16.7201C59.6822 16.7201 61.092 18.0881 61.092 19.7601C61.092 21.4321 59.6822 22.8001 57.9591 22.8001C56.236 22.8001 54.8262 21.4321 54.8262 19.7601C54.8262 18.0881 56.236 16.7201 57.9591 16.7201ZM39.1616 21.2801C48.67 21.2801 56.3926 28.7737 56.3926 38.0001C56.3926 47.2265 48.67 54.7201 39.1616 54.7201C29.6532 54.7201 21.9305 47.2265 21.9305 38.0001C21.9305 28.7737 29.6532 21.2801 39.1616 21.2801ZM39.1616 24.3201C31.3919 24.3201 25.0634 30.4609 25.0634 38.0001C25.0634 45.5393 31.3919 51.6801 39.1616 51.6801C46.9312 51.6801 53.2597 45.5393 53.2597 38.0001C53.2597 30.4609 46.9312 24.3201 39.1616 24.3201Z" fill="#12822B"/>
</g>
<defs>
<clipPath id="clip0_28_52">
<rect width="78.323" height="76" fill="white"/>
</clipPath>
</defs>
</svg>
