<svg width="79" height="76" viewBox="0 0 79 76" fill="none" xmlns="http://www.w3.org/2000/svg">
<path d="M64.2249 6.08008H14.0982C9.77474 6.08008 6.26587 9.48488 6.26587 13.6801V62.3201C6.26587 66.5153 9.77474 69.9201 14.0982 69.9201H64.2249C68.5483 69.9201 72.0572 66.5153 72.0572 62.3201V13.6801C72.0572 9.48488 68.5483 6.08008 64.2249 6.08008ZM26.6298 30.4001V59.2801H17.2311V30.4001H26.6298ZM17.2311 21.9945C17.2311 19.8665 19.1108 18.2401 21.9305 18.2401C24.7501 18.2401 26.5202 19.8665 26.6298 21.9945C26.6298 24.1225 24.8754 25.8401 21.9305 25.8401C19.1108 25.8401 17.2311 24.1225 17.2311 21.9945ZM61.092 59.2801H51.6932C51.6932 59.2801 51.6932 45.2049 51.6932 44.0801C51.6932 41.0401 50.1267 38.0001 46.2106 37.9393H46.0853C42.2944 37.9393 40.728 41.0705 40.728 44.0801C40.728 45.4633 40.728 59.2801 40.728 59.2801H31.3292V30.4001H40.728V34.2913C40.728 34.2913 43.7512 30.4001 49.8291 30.4001C56.048 30.4001 61.092 34.5497 61.092 42.9553V59.2801Z" fill="#12822B"/>
</svg>
