<svg width="97" height="97" viewBox="0 0 97 97" fill="none" xmlns="http://www.w3.org/2000/svg">
<path d="M48.4999 9.69995C27.0726 9.69995 9.69995 27.0726 9.69995 48.4999C9.69995 66.681 22.2194 81.8938 39.0974 86.1036C38.9163 85.5798 38.7999 84.9719 38.7999 84.2186V77.587C37.2253 77.587 34.5869 77.587 33.9241 77.587C31.2695 77.587 28.9092 76.4456 27.7646 74.3246C26.4939 71.9675 26.274 68.3623 23.1247 66.1572C22.1903 65.4232 22.9016 64.5858 23.9783 64.6989C25.9668 65.2615 27.6158 66.626 29.1678 68.6501C30.7134 70.6774 31.4409 71.1365 34.3282 71.1365C35.7283 71.1365 37.8235 71.0557 39.7958 70.7453C40.8563 68.0519 42.6896 65.5719 44.9303 64.4015C32.0099 63.0726 25.844 56.6447 25.844 47.9179C25.844 44.1608 27.4445 40.5265 30.1637 37.4646C29.2713 34.4252 28.1493 28.2269 30.5064 25.8666C36.32 25.8666 39.8346 29.6367 40.6785 30.6552C43.5756 29.6625 46.7572 29.0999 50.1004 29.0999C53.4502 29.0999 56.6447 29.6625 59.5482 30.6616C60.3824 29.6496 63.9003 25.8666 69.7268 25.8666C72.0936 28.2302 70.9587 34.4543 70.0566 37.4872C72.7596 40.5427 74.3504 44.1673 74.3504 47.9179C74.3504 56.6382 68.1942 63.0629 55.2932 64.3982C58.8434 66.2509 61.4333 71.4566 61.4333 75.3786V84.2186C61.4333 84.5548 61.3589 84.7973 61.3201 85.0851C76.4392 79.7857 87.2999 65.4297 87.2999 48.4999C87.2999 27.0726 69.9272 9.69995 48.4999 9.69995Z" fill="#1BD845"/>
</svg>
