<svg width="79" height="76" viewBox="0 0 79 76" fill="none" xmlns="http://www.w3.org/2000/svg">
<path d="M35.5717 6.65009C20.5598 8.23342 8.48502 19.9501 6.8533 34.2001C5.22157 49.0834 14.0329 62.3834 27.4131 67.4501C28.3921 67.7668 29.3712 67.1334 29.3712 65.8668V60.8001C29.3712 60.8001 28.0658 61.1168 26.434 61.1168C21.8652 61.1168 19.9071 57.3168 19.5808 55.1001C19.2544 53.8334 18.6017 52.8834 17.6227 51.9334C16.6437 51.6168 16.3173 51.6168 16.3173 51.3001C16.3173 50.6668 17.2964 50.6668 17.6227 50.6668C19.5808 50.6668 21.2125 52.8834 21.8652 53.8334C23.4969 56.3668 25.455 57.0001 26.434 57.0001C27.7394 57.0001 28.7185 56.6834 29.3712 56.3668C29.6975 54.1501 30.6765 51.9334 32.6346 50.6668C25.1287 49.0834 19.5808 44.9668 19.5808 38.0001C19.5808 34.5168 21.2125 31.0334 23.4969 28.5001C23.1706 27.8668 22.8442 26.2834 22.8442 24.0668C22.8442 22.8001 22.8442 20.9001 23.8233 19.0001C23.8233 19.0001 28.3921 19.0001 32.961 23.1168C34.5927 22.4834 36.8771 22.1668 39.1615 22.1668C41.446 22.1668 43.7304 22.4834 45.6885 23.1168C49.931 19.0001 54.8261 19.0001 54.8261 19.0001C55.4788 20.9001 55.4788 22.8001 55.4788 24.0668C55.4788 26.6001 55.1525 27.8668 54.8261 28.5001C57.1106 31.0334 58.7423 34.2001 58.7423 38.0001C58.7423 44.9668 53.1944 49.0834 45.6885 50.6668C47.6465 52.2501 48.9519 55.1001 48.9519 57.9501V66.1834C48.9519 67.1334 49.931 68.0834 51.2363 67.7668C63.3111 63.0168 71.7961 51.6168 71.7961 38.3168C71.7961 19.3168 55.1525 4.43342 35.5717 6.65009Z" fill="#12822B"/>
</svg>
