<svg width="97" height="97" viewBox="0 0 97 97" fill="none" xmlns="http://www.w3.org/2000/svg">
<path d="M87.8305 4.50899C87.4668 4.10735 86.9439 3.88 86.3983 3.88H10.6019C10.0562 3.88 9.53336 4.10735 9.16961 4.50899C8.79827 4.91063 8.6164 5.44869 8.66945 5.99431L15.4973 82.4803C15.5656 83.2836 16.1263 83.9505 16.8993 84.1778L47.962 93.0442C48.1288 93.0973 48.3106 93.12 48.4925 93.12C48.6744 93.12 48.8487 93.0973 49.023 93.0442L80.1085 84.1778C80.8814 83.9505 81.4346 83.2836 81.5104 82.4803L88.3307 5.99431C88.3838 5.44869 88.2019 4.91063 87.8305 4.50899ZM71.4845 30.8809H34.9883L35.8598 40.7552H70.6055L67.9986 69.9385L48.4849 75.8343L48.2955 75.7737L29.0091 69.9309L27.9558 58.0408H37.4057L37.8149 62.6559L48.5986 64.9142L59.1852 62.6559L60.3144 50.1672H27.251L24.682 21.4461H72.3257L71.4845 30.8809Z" fill="#1BD845"/>
</svg>
