<svg width="97" height="97" viewBox="0 0 97 97" fill="none" xmlns="http://www.w3.org/2000/svg">
<path d="M34.5309 13.5206C32.5554 13.5206 30.7231 13.9629 29.0999 14.8973C24.0273 17.826 22.0965 24.9631 23.1195 33.8489C14.9143 37.4059 9.69995 42.6433 9.69995 48.5C9.69995 54.3566 14.9143 59.5941 23.1195 63.151C22.097 72.0365 24.0273 79.1739 29.0999 82.1026C30.7198 83.0371 32.5521 83.4793 34.5309 83.4793C38.7428 83.4793 43.6107 81.3655 48.4999 77.7389C53.3896 81.3655 58.2634 83.4793 62.4753 83.4793C64.4508 83.4793 66.2831 83.0371 67.9063 82.1026C72.9789 79.1739 74.9097 72.0368 73.8867 63.151C82.0888 59.5941 87.3 54.3553 87.3 48.5C87.3 42.6433 82.0856 37.4059 73.8804 33.8489C74.9029 24.9634 72.9726 17.826 67.9 14.8973C66.2801 13.9597 64.4478 13.5206 62.469 13.5206C58.2571 13.5206 53.3893 15.6345 48.5 19.2611C43.6104 15.6345 38.7413 13.5206 34.5309 13.5206ZM34.5309 19.179C37.0582 19.179 40.4003 20.5228 44.0289 23.0122C41.8954 25.0256 39.806 27.315 37.7958 29.8641C34.5354 30.3316 31.4614 31.0131 28.6137 31.866C28.5984 31.6685 28.5622 31.4613 28.5505 31.2661C28.2046 25.5107 29.4685 21.2205 31.9291 19.7979C32.6566 19.3775 33.506 19.179 34.5309 19.179ZM62.4689 19.179C63.4907 19.179 64.3433 19.3775 65.0708 19.7979C67.5313 21.2173 68.7953 25.5107 68.4493 31.2661C68.4376 31.4613 68.4016 31.6685 68.3862 31.866C65.5367 31.0126 62.4604 30.3317 59.1977 29.8641C57.1876 27.3153 55.1044 25.0254 52.971 23.0123C56.5993 20.5232 59.943 19.179 62.4689 19.179ZM48.4999 26.6055C49.3764 27.4033 50.2468 28.2465 51.127 29.1695C50.2547 29.1402 49.3871 29.1 48.4999 29.1C47.6149 29.1 46.7494 29.1403 45.8792 29.1695C46.7586 28.2475 47.6243 27.4026 48.4999 26.6055ZM48.4999 34.7583C51.1794 34.7583 53.719 34.9081 56.1286 35.1688C57.5981 37.1661 59.0464 39.2779 60.4039 41.6291C61.7051 43.8829 62.8558 46.1897 63.8709 48.5C62.8556 50.8116 61.7059 53.122 60.4039 55.3771C59.0506 57.7216 57.6059 59.8197 56.1412 61.8122C53.6465 62.0851 51.0873 62.2416 48.5 62.2416C45.8205 62.2416 43.281 62.0918 40.8713 61.8311C39.4018 59.8338 37.9536 57.7283 36.596 55.3771C35.294 53.122 34.1446 50.8116 33.129 48.5C34.1439 46.1897 35.2948 43.8829 36.596 41.6291C37.9499 39.2847 39.3936 37.1802 40.8587 35.1877C43.3534 34.9148 45.9126 34.7583 48.4999 34.7583ZM63.8456 36.5076C65.1285 36.8173 66.3617 37.1517 67.521 37.5243C67.2584 38.7111 66.9371 39.9207 66.5737 41.1429C66.1577 40.3621 65.7542 39.5789 65.3044 38.8C64.8416 37.9988 64.3279 37.2789 63.8456 36.5076ZM33.1479 36.5139C32.6673 37.2828 32.1567 38.0013 31.6954 38.8C31.2458 39.579 30.842 40.362 30.4261 41.1429C30.0619 39.9182 29.7354 38.7072 29.4725 37.518C30.6531 37.145 31.8833 36.8147 33.1479 36.5139ZM24.1489 39.5957C24.8302 42.4721 25.7752 45.4539 26.9907 48.4936C25.7778 51.5262 24.8367 54.5025 24.1552 57.3727C18.5245 54.6536 15.3583 51.2689 15.3583 48.4999C15.3583 45.6578 18.4361 42.4189 23.5932 39.842C23.7692 39.7539 23.969 39.6817 24.1489 39.5957ZM72.8447 39.6273C78.4754 42.3463 81.6416 45.731 81.6416 48.5C81.6416 51.3421 78.5639 54.581 73.4067 57.158C73.2307 57.246 73.0308 57.3182 72.851 57.4042C72.1694 54.5261 71.232 51.5415 70.0155 48.4999C71.227 45.47 72.1638 42.495 72.8447 39.6273ZM48.4999 42.0333C44.9271 42.0333 42.0333 44.9271 42.0333 48.5C42.0333 52.0728 44.9271 54.9666 48.4999 54.9666C52.0728 54.9666 54.9666 52.0728 54.9666 48.5C54.9666 44.9271 52.0728 42.0333 48.4999 42.0333ZM30.4261 55.8571C30.8423 56.6381 31.2518 57.4208 31.7018 58.2C32.164 59.0006 32.6725 59.7216 33.1543 60.4923C31.8714 60.1826 30.6382 59.8483 29.4789 59.4756C29.7417 58.2881 30.0624 57.08 30.4261 55.8571ZM66.5737 55.8634C66.9376 57.0869 67.2646 58.2939 67.5273 59.4819C66.3467 59.8549 65.1166 60.1853 63.8519 60.486C64.3326 59.7171 64.8431 58.9986 65.3044 58.2C65.7531 57.4225 66.1586 56.6426 66.5737 55.8634ZM28.6137 65.1339C31.4632 65.9874 34.5395 66.6683 37.8022 67.1358C39.8129 69.6859 41.8945 71.9802 44.0289 73.994C40.4006 76.4828 37.0581 77.8273 34.5309 77.8273C33.5092 77.8273 32.6566 77.6224 31.9291 77.2021C29.4685 75.7827 28.2046 71.4955 28.5505 65.7402C28.5624 65.5429 28.5981 65.3335 28.6137 65.1339ZM68.3862 65.1339C68.4017 65.3335 68.4376 65.5429 68.4493 65.7402C68.7953 71.4955 67.5313 75.7794 65.0708 77.2021C64.3433 77.6224 63.4939 77.8273 62.4689 77.8273C59.9418 77.8273 56.5993 76.4832 52.971 73.994C55.1055 71.98 57.1929 69.6862 59.204 67.1358C62.4644 66.6683 65.5385 65.9868 68.3862 65.1339ZM45.8729 67.8305C46.7451 67.8598 47.6128 67.9 48.4999 67.9C49.3871 67.9 50.2547 67.8598 51.127 67.8305C50.2468 68.7535 49.3764 69.5967 48.4999 70.3944C47.6234 69.5967 46.7531 68.7535 45.8729 67.8305Z" fill="#1BD845"/>
</svg>
