<svg width="45" height="37" viewBox="0 0 45 37" fill="none" xmlns="http://www.w3.org/2000/svg">
<path d="M43.5476 1.40415C41.7285 2.70615 39.7143 3.70197 37.5827 4.35326C36.4386 3.01847 34.9181 2.07241 33.2269 1.64302C31.5356 1.21363 29.7552 1.32164 28.1264 1.95244C26.4976 2.58324 25.099 3.70639 24.1198 5.16999C23.1406 6.63359 22.628 8.36702 22.6514 10.1358V12.0634C19.313 12.1512 16.005 11.3999 13.022 9.87648C10.0391 8.35303 7.47371 6.10468 5.55445 3.33167C5.55445 3.33167 -2.04419 20.6794 15.0527 28.3895C11.1404 31.0841 6.47988 32.4353 1.75513 32.2446C18.8521 41.8822 39.7483 32.2446 39.7483 10.078C39.7466 9.54111 39.6957 9.00553 39.5963 8.47817C41.5351 6.5381 42.9033 4.08864 43.5476 1.40415Z" stroke="#FBF9FC" stroke-width="1.64017" stroke-linecap="round" stroke-linejoin="round"/>
</svg>
