<svg width="102" height="102" viewBox="0 0 102 102" fill="none" xmlns="http://www.w3.org/2000/svg">
<path d="M84.7174 55.1564C81.4491 55.1734 78.6186 55.9575 76.2471 57.1284C75.3801 55.3965 74.5004 53.8729 74.3537 52.7403C74.1816 51.4185 73.9819 50.628 74.1901 49.0534C74.3984 47.4788 75.31 45.2475 75.2972 45.0797C75.2845 44.9118 75.0932 44.1107 73.2084 44.0958C71.3235 44.083 69.7106 44.4592 69.5215 44.9564C69.3324 45.4537 68.969 46.5735 68.7437 47.7423C68.4144 49.4508 64.9804 55.5474 63.0318 58.7349C62.3943 57.4897 61.8524 56.3932 61.7398 55.5262C61.5676 54.2044 61.3679 53.4139 61.5761 51.8393C61.7844 50.2647 62.696 48.0334 62.6833 47.8655C62.6705 47.6977 62.4793 46.8965 60.5944 46.8817C58.7095 46.8689 57.0966 47.245 56.9075 47.7423C56.7184 48.2395 56.5144 49.4019 56.1298 50.5282C55.743 51.6523 51.1806 61.8204 49.9843 64.4575C49.3744 65.8005 48.8453 66.88 48.4713 67.6153C48.4691 67.6132 48.4691 67.611 48.4691 67.611C48.4691 67.611 48.4458 67.6599 48.4075 67.7428C48.0866 68.3696 47.8975 68.716 47.8975 68.716C47.8975 68.716 47.8996 68.7203 47.9039 68.7288C47.6489 69.1899 47.3769 69.617 47.243 69.617C47.1495 69.617 46.9604 68.3909 47.2834 66.7079C47.9634 63.1804 49.5933 57.6809 49.5784 57.4897C49.5699 57.3919 49.8823 56.4335 48.5138 55.932C47.1835 55.4454 46.7096 56.2572 46.5885 56.2593C46.4716 56.2614 46.3845 56.5462 46.3845 56.5462C46.3845 56.5462 47.8656 50.3603 43.5583 50.3603C40.8638 50.3603 37.1323 53.3077 35.2941 55.9788C34.1339 56.612 31.6498 57.9678 29.0169 59.4149C28.0054 59.9717 26.9726 60.539 25.993 61.0788C25.9271 61.0044 25.8591 60.9322 25.7911 60.8578C20.5658 55.2839 10.9098 51.342 11.3178 43.8472C11.4665 41.1229 12.4143 33.9489 29.8754 25.2492C44.1788 18.1219 55.6304 20.0833 57.6088 24.4289C60.435 30.6403 51.4888 42.1812 36.635 43.8472C30.9761 44.4825 27.9948 42.2874 27.2531 41.4714C26.4733 40.6108 26.3564 40.5725 26.0653 40.734C25.5914 40.9975 25.891 41.7562 26.0653 42.2088C26.5094 43.3627 28.3284 45.409 31.4309 46.429C34.1615 47.3258 40.8064 47.8167 48.841 44.7078C57.8425 41.227 64.8699 31.5413 62.8044 23.4472C60.7049 15.2149 47.0539 12.5077 34.1339 17.0977C26.435 19.8304 18.1114 24.1187 12.1253 29.7159C5.00866 36.3714 3.87391 42.1663 4.34141 44.5867C6.00316 53.1887 17.8585 58.7902 22.6058 62.9403C22.372 63.0699 22.151 63.191 21.9513 63.3015C19.5713 64.4788 10.5337 69.209 8.27266 74.2049C5.70778 79.8723 8.68066 83.9395 10.6484 84.4878C16.745 86.1835 23.001 83.132 26.3649 78.117C29.7266 73.1042 29.3165 66.574 27.7738 63.5948C27.7546 63.5587 27.7334 63.5225 27.7143 63.4843C28.3284 63.1209 28.9553 62.7512 29.5758 62.3857C30.787 61.6738 31.977 61.0108 33.0076 60.4498C32.4296 62.0308 32.0068 63.9284 31.7879 66.6675C31.5286 69.8848 32.8483 74.0434 34.5738 75.6796C35.3345 76.4 36.2483 76.417 36.8263 76.417C38.8344 76.417 39.7503 74.7468 40.7596 72.7705C41.9964 70.348 43.095 67.526 43.095 67.526C43.095 67.526 41.718 75.1463 45.4708 75.1463C46.8393 75.1463 48.2141 73.3719 48.8283 72.4688C48.8304 72.4794 48.8304 72.4837 48.8304 72.4837C48.8304 72.4837 48.8665 72.4241 48.9366 72.3073C49.079 72.0905 49.1598 71.9524 49.1598 71.9524C49.1598 71.9524 49.1619 71.9375 49.1661 71.912C49.7165 70.9579 50.9363 68.7819 52.7638 65.1928C55.1268 60.556 57.392 54.7463 57.392 54.7463C57.392 54.7463 57.6024 56.1658 58.293 58.516C58.6989 59.8973 59.5616 61.4252 60.2438 62.8914C59.6955 63.6522 59.3598 64.0878 59.3598 64.0878C59.3598 64.0878 59.3619 64.0963 59.3683 64.1112C58.9305 64.6934 58.4396 65.3203 57.9254 65.9323C56.0596 68.1529 53.839 70.6902 53.5415 71.4212C53.1909 72.2839 53.2738 72.9171 53.9516 73.4293C54.4468 73.8011 55.3265 73.8606 56.2466 73.799C57.9233 73.6864 59.1005 73.2699 59.6828 73.017C60.5901 72.6961 61.6463 72.1925 62.6365 71.4636C64.4661 70.1185 65.569 68.1954 65.4627 65.6454C65.4033 64.2408 64.957 62.8489 64.3896 61.5357C64.5554 61.2977 64.7211 61.0554 64.889 60.8132C67.7726 56.5972 70.0102 51.9647 70.0102 51.9647C70.0102 51.9647 70.2206 53.3842 70.9112 55.7344C71.2597 56.9223 71.9504 58.2207 72.5709 59.4914C69.8594 61.695 68.1785 64.2557 67.5941 65.9344C66.5146 69.0411 67.3604 70.4479 68.9456 70.7688C69.6639 70.9133 70.6796 70.5839 71.4425 70.2609C72.3924 69.9464 73.5335 69.4215 74.6002 68.6374C76.4299 67.2923 78.1894 65.4095 78.0831 62.8617C78.0342 61.7014 77.7197 60.5497 77.2926 59.4447C79.5919 58.4863 82.5669 57.955 86.3579 58.397C94.4902 59.3469 96.084 64.4235 95.7801 66.5485C95.4741 68.6735 93.7699 69.8423 93.1982 70.195C92.6287 70.5478 92.4545 70.671 92.5012 70.9324C92.5714 71.3128 92.8349 71.3 93.3215 71.2171C93.9909 71.1045 97.5906 69.4895 97.7457 65.5668C97.9391 60.5815 93.1685 55.1118 84.7174 55.1564ZM22.0363 76.2874C19.3418 79.2263 15.5805 80.3355 13.9655 79.4005C12.223 78.3911 12.9137 74.0647 16.218 70.9452C18.2325 69.0454 20.8335 67.2944 22.559 66.217C22.9522 65.9812 23.528 65.6348 24.2293 65.214C24.3461 65.1482 24.412 65.112 24.412 65.112L24.4099 65.1078C24.5459 65.027 24.684 64.9442 24.8264 64.857C26.0313 69.2962 24.8646 73.204 22.0363 76.2874ZM41.6606 62.9488C40.7235 65.2353 38.76 71.0875 37.5636 70.773C36.5373 70.5032 35.9125 66.0555 37.3596 61.678C38.0864 59.4744 39.6419 56.8415 40.5556 55.8194C42.0261 54.1747 43.6454 53.637 44.0385 54.3043C44.5379 55.1543 42.2493 61.5144 41.6606 62.9488ZM57.8723 70.6838C57.4749 70.892 57.1094 71.0216 56.9415 70.9218C56.8161 70.8474 57.1051 70.5733 57.1051 70.5733C57.1051 70.5733 59.1324 68.3909 59.9314 67.3985C60.3968 66.8205 60.9344 66.1342 61.5209 65.3692C61.5251 65.4457 61.5273 65.5222 61.5273 65.5965C61.523 68.2103 58.9985 69.974 57.8723 70.6838ZM70.3609 67.8363C70.0634 67.6259 70.1144 66.9438 71.0897 64.8167C71.4722 63.9815 72.3477 62.5769 73.865 61.2339C74.0414 61.7864 74.1476 62.3155 74.1455 62.8085C74.1264 66.098 71.7804 67.3263 70.3609 67.8363Z" fill="#1BD845"/>
</svg>
